<?xml version="1.0" encoding="utf-8" standalone="no"?>
<!DOCTYPE svg PUBLIC "-//W3C//DTD SVG 1.1//EN"
  "http://www.w3.org/Graphics/SVG/1.1/DTD/svg11.dtd">
<svg xmlns:xlink="http://www.w3.org/1999/xlink" width="483.597751pt" height="249.31976pt" viewBox="0 0 483.597751 249.31976" xmlns="http://www.w3.org/2000/svg" version="1.1">
 <metadata>
  <rdf:RDF xmlns:dc="http://purl.org/dc/elements/1.1/" xmlns:cc="http://creativecommons.org/ns#" xmlns:rdf="http://www.w3.org/1999/02/22-rdf-syntax-ns#">
   <cc:Work>
    <dc:type rdf:resource="http://purl.org/dc/dcmitype/StillImage"/>
    <dc:date>2026-01-23T21:08:28.555788</dc:date>
    <dc:format>image/svg+xml</dc:format>
    <dc:creator>
     <cc:Agent>
      <dc:title>Matplotlib v3.9.2, https://matplotlib.org/</dc:title>
     </cc:Agent>
    </dc:creator>
   </cc:Work>
  </rdf:RDF>
 </metadata>
 <defs>
  <style type="text/css">*{stroke-linejoin: round; stroke-linecap: butt}</style>
 </defs>
 <g id="figure_1">
  <g id="patch_1">
   <path d="M 0 249.31976 
L 483.597751 249.31976 
L 483.597751 0 
L 0 0 
z
" style="fill: #ffffff"/>
  </g>
  <g id="axes_1">
   <g id="patch_2">
    <path d="M 40.374531 215.678979 
L 218.38916 215.678979 
L 218.38916 44.369615 
L 40.374531 44.369615 
z
" style="fill: #ffffff"/>
   </g>
   <g id="PolyCollection_1">
    <defs>
     <path id="me350a2d56b" d="M 44.162077 -217.016461 
L 44.162077 -126.392722 
L 82.037529 -84.047959 
L 119.912982 -61.350146 
L 157.788435 -43.90062 
L 195.663888 -40.840476 
L 195.663888 -59.010553 
L 195.663888 -59.010553 
L 157.788435 -74.631459 
L 119.912982 -91.318398 
L 82.037529 -111.480377 
L 44.162077 -217.016461 
z
"/>
    </defs>
    <g clip-path="url(#p37d5717acd)">
     <use xlink:href="#me350a2d56b" x="0" y="249.31976" style="fill: #c44e52; fill-opacity: 0.08"/>
    </g>
   </g>
   <g id="PolyCollection_2">
    <defs>
     <path id="m6d410b8281" d="M 44.162077 -204.858787 
L 44.162077 -141.740769 
L 82.037529 -113.228382 
L 119.912982 -90.966836 
L 157.788435 -78.360273 
L 195.663888 -71.878309 
L 195.663888 -95.959273 
L 195.663888 -95.959273 
L 157.788435 -103.583815 
L 119.912982 -108.258218 
L 82.037529 -115.620503 
L 44.162077 -204.858787 
z
"/>
    </defs>
    <g clip-path="url(#p37d5717acd)">
     <use xlink:href="#m6d410b8281" x="0" y="249.31976" style="fill: #55a868; fill-opacity: 0.08"/>
    </g>
   </g>
   <g id="matplotlib.axis_1">
    <g id="xtick_1">
     <g id="line2d_1">
      <path d="M 44.162077 215.678979 
L 44.162077 44.369615 
" clip-path="url(#p37d5717acd)" style="fill: none; stroke: #b0b0b0; stroke-opacity: 0.2; stroke-width: 0.5; stroke-linecap: square"/>
     </g>
     <g id="line2d_2">
      <defs>
       <path id="m4ad6fa0493" d="M 0 0 
L 0 3.5 
" style="stroke: #000000; stroke-width: 0.8"/>
      </defs>
      <g>
       <use xlink:href="#m4ad6fa0493" x="44.162077" y="215.678979" style="stroke: #000000; stroke-width: 0.8"/>
      </g>
     </g>
     <g id="text_1">
      <!-- 0 -->
      <g transform="translate(42.162077 228.233979) scale(0.08 -0.08)">
       <defs>
        <path id="TimesNewRomanPSMT-30" d="M 231 2094 
Q 231 2819 450 3342 
Q 669 3866 1031 4122 
Q 1313 4325 1613 4325 
Q 2100 4325 2488 3828 
Q 2972 3213 2972 2159 
Q 2972 1422 2759 906 
Q 2547 391 2217 158 
Q 1888 -75 1581 -75 
Q 975 -75 572 641 
Q 231 1244 231 2094 
z
M 844 2016 
Q 844 1141 1059 588 
Q 1238 122 1591 122 
Q 1759 122 1940 273 
Q 2122 425 2216 781 
Q 2359 1319 2359 2297 
Q 2359 3022 2209 3506 
Q 2097 3866 1919 4016 
Q 1791 4119 1609 4119 
Q 1397 4119 1231 3928 
Q 1006 3669 925 3112 
Q 844 2556 844 2016 
z
" transform="scale(0.015625)"/>
       </defs>
       <use xlink:href="#TimesNewRomanPSMT-30"/>
      </g>
     </g>
    </g>
    <g id="xtick_2">
     <g id="line2d_3">
      <path d="M 82.037529 215.678979 
L 82.037529 44.369615 
" clip-path="url(#p37d5717acd)" style="fill: none; stroke: #b0b0b0; stroke-opacity: 0.2; stroke-width: 0.5; stroke-linecap: square"/>
     </g>
     <g id="line2d_4">
      <g>
       <use xlink:href="#m4ad6fa0493" x="82.037529" y="215.678979" style="stroke: #000000; stroke-width: 0.8"/>
      </g>
     </g>
     <g id="text_2">
      <!-- 1 -->
      <g transform="translate(80.037529 228.233979) scale(0.08 -0.08)">
       <defs>
        <path id="TimesNewRomanPSMT-31" d="M 750 3822 
L 1781 4325 
L 1884 4325 
L 1884 747 
Q 1884 391 1914 303 
Q 1944 216 2037 169 
Q 2131 122 2419 116 
L 2419 0 
L 825 0 
L 825 116 
Q 1125 122 1212 167 
Q 1300 213 1334 289 
Q 1369 366 1369 747 
L 1369 3034 
Q 1369 3497 1338 3628 
Q 1316 3728 1258 3775 
Q 1200 3822 1119 3822 
Q 1003 3822 797 3725 
L 750 3822 
z
" transform="scale(0.015625)"/>
       </defs>
       <use xlink:href="#TimesNewRomanPSMT-31"/>
      </g>
     </g>
    </g>
    <g id="xtick_3">
     <g id="line2d_5">
      <path d="M 119.912982 215.678979 
L 119.912982 44.369615 
" clip-path="url(#p37d5717acd)" style="fill: none; stroke: #b0b0b0; stroke-opacity: 0.2; stroke-width: 0.5; stroke-linecap: square"/>
     </g>
     <g id="line2d_6">
      <g>
       <use xlink:href="#m4ad6fa0493" x="119.912982" y="215.678979" style="stroke: #000000; stroke-width: 0.8"/>
      </g>
     </g>
     <g id="text_3">
      <!-- 2 -->
      <g transform="translate(117.912982 228.233979) scale(0.08 -0.08)">
       <defs>
        <path id="TimesNewRomanPSMT-32" d="M 2934 816 
L 2638 0 
L 138 0 
L 138 116 
Q 1241 1122 1691 1759 
Q 2141 2397 2141 2925 
Q 2141 3328 1894 3587 
Q 1647 3847 1303 3847 
Q 991 3847 742 3664 
Q 494 3481 375 3128 
L 259 3128 
Q 338 3706 661 4015 
Q 984 4325 1469 4325 
Q 1984 4325 2329 3994 
Q 2675 3663 2675 3213 
Q 2675 2891 2525 2569 
Q 2294 2063 1775 1497 
Q 997 647 803 472 
L 1909 472 
Q 2247 472 2383 497 
Q 2519 522 2628 598 
Q 2738 675 2819 816 
L 2934 816 
z
" transform="scale(0.015625)"/>
       </defs>
       <use xlink:href="#TimesNewRomanPSMT-32"/>
      </g>
     </g>
    </g>
    <g id="xtick_4">
     <g id="line2d_7">
      <path d="M 157.788435 215.678979 
L 157.788435 44.369615 
" clip-path="url(#p37d5717acd)" style="fill: none; stroke: #b0b0b0; stroke-opacity: 0.2; stroke-width: 0.5; stroke-linecap: square"/>
     </g>
     <g id="line2d_8">
      <g>
       <use xlink:href="#m4ad6fa0493" x="157.788435" y="215.678979" style="stroke: #000000; stroke-width: 0.8"/>
      </g>
     </g>
     <g id="text_4">
      <!-- 3 -->
      <g transform="translate(155.788435 228.233979) scale(0.08 -0.08)">
       <defs>
        <path id="TimesNewRomanPSMT-33" d="M 325 3431 
Q 506 3859 782 4092 
Q 1059 4325 1472 4325 
Q 1981 4325 2253 3994 
Q 2459 3747 2459 3466 
Q 2459 3003 1878 2509 
Q 2269 2356 2469 2072 
Q 2669 1788 2669 1403 
Q 2669 853 2319 450 
Q 1863 -75 997 -75 
Q 569 -75 414 31 
Q 259 138 259 259 
Q 259 350 332 419 
Q 406 488 509 488 
Q 588 488 669 463 
Q 722 447 909 348 
Q 1097 250 1169 231 
Q 1284 197 1416 197 
Q 1734 197 1970 444 
Q 2206 691 2206 1028 
Q 2206 1275 2097 1509 
Q 2016 1684 1919 1775 
Q 1784 1900 1550 2001 
Q 1316 2103 1072 2103 
L 972 2103 
L 972 2197 
Q 1219 2228 1467 2375 
Q 1716 2522 1828 2728 
Q 1941 2934 1941 3181 
Q 1941 3503 1739 3701 
Q 1538 3900 1238 3900 
Q 753 3900 428 3381 
L 325 3431 
z
" transform="scale(0.015625)"/>
       </defs>
       <use xlink:href="#TimesNewRomanPSMT-33"/>
      </g>
     </g>
    </g>
    <g id="xtick_5">
     <g id="line2d_9">
      <path d="M 195.663888 215.678979 
L 195.663888 44.369615 
" clip-path="url(#p37d5717acd)" style="fill: none; stroke: #b0b0b0; stroke-opacity: 0.2; stroke-width: 0.5; stroke-linecap: square"/>
     </g>
     <g id="line2d_10">
      <g>
       <use xlink:href="#m4ad6fa0493" x="195.663888" y="215.678979" style="stroke: #000000; stroke-width: 0.8"/>
      </g>
     </g>
     <g id="text_5">
      <!-- 4 -->
      <g transform="translate(193.663888 228.233979) scale(0.08 -0.08)">
       <defs>
        <path id="TimesNewRomanPSMT-34" d="M 2978 1563 
L 2978 1119 
L 2409 1119 
L 2409 0 
L 1894 0 
L 1894 1119 
L 100 1119 
L 100 1519 
L 2066 4325 
L 2409 4325 
L 2409 1563 
L 2978 1563 
z
M 1894 1563 
L 1894 3666 
L 406 1563 
L 1894 1563 
z
" transform="scale(0.015625)"/>
       </defs>
       <use xlink:href="#TimesNewRomanPSMT-34"/>
      </g>
     </g>
    </g>
    <g id="text_6">
     <!-- Generation -->
     <g transform="translate(109.390596 240.194604) scale(0.09 -0.09)">
      <defs>
       <path id="TimesNewRomanPSMT-47" d="M 3928 4334 
L 4038 2997 
L 3928 2997 
Q 3763 3497 3500 3750 
Q 3122 4116 2528 4116 
Q 1719 4116 1297 3475 
Q 944 2934 944 2188 
Q 944 1581 1178 1081 
Q 1413 581 1792 348 
Q 2172 116 2572 116 
Q 2806 116 3025 175 
Q 3244 234 3447 350 
L 3447 1575 
Q 3447 1894 3398 1992 
Q 3350 2091 3248 2142 
Q 3147 2194 2891 2194 
L 2891 2313 
L 4531 2313 
L 4531 2194 
L 4453 2194 
Q 4209 2194 4119 2031 
Q 4056 1916 4056 1575 
L 4056 278 
Q 3697 84 3347 -6 
Q 2997 -97 2569 -97 
Q 1341 -97 703 691 
Q 225 1281 225 2053 
Q 225 2613 494 3125 
Q 813 3734 1369 4063 
Q 1834 4334 2469 4334 
Q 2700 4334 2889 4296 
Q 3078 4259 3425 4131 
Q 3600 4066 3659 4066 
Q 3719 4066 3761 4120 
Q 3803 4175 3813 4334 
L 3928 4334 
z
" transform="scale(0.015625)"/>
       <path id="TimesNewRomanPSMT-65" d="M 681 1784 
Q 678 1147 991 784 
Q 1303 422 1725 422 
Q 2006 422 2214 576 
Q 2422 731 2563 1106 
L 2659 1044 
Q 2594 616 2278 264 
Q 1963 -88 1488 -88 
Q 972 -88 605 314 
Q 238 716 238 1394 
Q 238 2128 614 2539 
Q 991 2950 1559 2950 
Q 2041 2950 2350 2633 
Q 2659 2316 2659 1784 
L 681 1784 
z
M 681 1966 
L 2006 1966 
Q 1991 2241 1941 2353 
Q 1863 2528 1708 2628 
Q 1553 2728 1384 2728 
Q 1125 2728 920 2526 
Q 716 2325 681 1966 
z
" transform="scale(0.015625)"/>
       <path id="TimesNewRomanPSMT-6e" d="M 1034 2341 
Q 1538 2947 1994 2947 
Q 2228 2947 2397 2830 
Q 2566 2713 2666 2444 
Q 2734 2256 2734 1869 
L 2734 647 
Q 2734 375 2778 278 
Q 2813 200 2889 156 
Q 2966 113 3172 113 
L 3172 0 
L 1756 0 
L 1756 113 
L 1816 113 
Q 2016 113 2095 173 
Q 2175 234 2206 353 
Q 2219 400 2219 647 
L 2219 1819 
Q 2219 2209 2117 2386 
Q 2016 2563 1775 2563 
Q 1403 2563 1034 2156 
L 1034 647 
Q 1034 356 1069 288 
Q 1113 197 1189 155 
Q 1266 113 1500 113 
L 1500 0 
L 84 0 
L 84 113 
L 147 113 
Q 366 113 442 223 
Q 519 334 519 647 
L 519 1709 
Q 519 2225 495 2337 
Q 472 2450 423 2490 
Q 375 2531 294 2531 
Q 206 2531 84 2484 
L 38 2597 
L 900 2947 
L 1034 2947 
L 1034 2341 
z
" transform="scale(0.015625)"/>
       <path id="TimesNewRomanPSMT-72" d="M 1038 2947 
L 1038 2303 
Q 1397 2947 1775 2947 
Q 1947 2947 2059 2842 
Q 2172 2738 2172 2600 
Q 2172 2478 2090 2393 
Q 2009 2309 1897 2309 
Q 1788 2309 1652 2417 
Q 1516 2525 1450 2525 
Q 1394 2525 1328 2463 
Q 1188 2334 1038 2041 
L 1038 669 
Q 1038 431 1097 309 
Q 1138 225 1241 169 
Q 1344 113 1538 113 
L 1538 0 
L 72 0 
L 72 113 
Q 291 113 397 181 
Q 475 231 506 341 
Q 522 394 522 644 
L 522 1753 
Q 522 2253 501 2348 
Q 481 2444 426 2487 
Q 372 2531 291 2531 
Q 194 2531 72 2484 
L 41 2597 
L 906 2947 
L 1038 2947 
z
" transform="scale(0.015625)"/>
       <path id="TimesNewRomanPSMT-61" d="M 1822 413 
Q 1381 72 1269 19 
Q 1100 -59 909 -59 
Q 613 -59 420 144 
Q 228 347 228 678 
Q 228 888 322 1041 
Q 450 1253 767 1440 
Q 1084 1628 1822 1897 
L 1822 2009 
Q 1822 2438 1686 2597 
Q 1550 2756 1291 2756 
Q 1094 2756 978 2650 
Q 859 2544 859 2406 
L 866 2225 
Q 866 2081 792 2003 
Q 719 1925 600 1925 
Q 484 1925 411 2006 
Q 338 2088 338 2228 
Q 338 2497 613 2722 
Q 888 2947 1384 2947 
Q 1766 2947 2009 2819 
Q 2194 2722 2281 2516 
Q 2338 2381 2338 1966 
L 2338 994 
Q 2338 584 2353 492 
Q 2369 400 2405 369 
Q 2441 338 2488 338 
Q 2538 338 2575 359 
Q 2641 400 2828 588 
L 2828 413 
Q 2478 -56 2159 -56 
Q 2006 -56 1915 50 
Q 1825 156 1822 413 
z
M 1822 616 
L 1822 1706 
Q 1350 1519 1213 1441 
Q 966 1303 859 1153 
Q 753 1003 753 825 
Q 753 600 887 451 
Q 1022 303 1197 303 
Q 1434 303 1822 616 
z
" transform="scale(0.015625)"/>
       <path id="TimesNewRomanPSMT-74" d="M 1031 3803 
L 1031 2863 
L 1700 2863 
L 1700 2644 
L 1031 2644 
L 1031 788 
Q 1031 509 1111 412 
Q 1191 316 1316 316 
Q 1419 316 1516 380 
Q 1613 444 1666 569 
L 1788 569 
Q 1678 263 1478 108 
Q 1278 -47 1066 -47 
Q 922 -47 784 33 
Q 647 113 581 261 
Q 516 409 516 719 
L 516 2644 
L 63 2644 
L 63 2747 
Q 234 2816 414 2980 
Q 594 3144 734 3369 
Q 806 3488 934 3803 
L 1031 3803 
z
" transform="scale(0.015625)"/>
       <path id="TimesNewRomanPSMT-69" d="M 928 4444 
Q 1059 4444 1151 4351 
Q 1244 4259 1244 4128 
Q 1244 3997 1151 3903 
Q 1059 3809 928 3809 
Q 797 3809 703 3903 
Q 609 3997 609 4128 
Q 609 4259 701 4351 
Q 794 4444 928 4444 
z
M 1188 2947 
L 1188 647 
Q 1188 378 1227 289 
Q 1266 200 1342 156 
Q 1419 113 1622 113 
L 1622 0 
L 231 0 
L 231 113 
Q 441 113 512 153 
Q 584 194 626 287 
Q 669 381 669 647 
L 669 1750 
Q 669 2216 641 2353 
Q 619 2453 572 2492 
Q 525 2531 444 2531 
Q 356 2531 231 2484 
L 188 2597 
L 1050 2947 
L 1188 2947 
z
" transform="scale(0.015625)"/>
       <path id="TimesNewRomanPSMT-6f" d="M 1600 2947 
Q 2250 2947 2644 2453 
Q 2978 2031 2978 1484 
Q 2978 1100 2793 706 
Q 2609 313 2286 112 
Q 1963 -88 1566 -88 
Q 919 -88 538 428 
Q 216 863 216 1403 
Q 216 1797 411 2186 
Q 606 2575 925 2761 
Q 1244 2947 1600 2947 
z
M 1503 2744 
Q 1338 2744 1170 2645 
Q 1003 2547 900 2300 
Q 797 2053 797 1666 
Q 797 1041 1045 587 
Q 1294 134 1700 134 
Q 2003 134 2200 384 
Q 2397 634 2397 1244 
Q 2397 2006 2069 2444 
Q 1847 2744 1503 2744 
z
" transform="scale(0.015625)"/>
      </defs>
      <use xlink:href="#TimesNewRomanPSMT-47"/>
      <use xlink:href="#TimesNewRomanPSMT-65" x="72.216797"/>
      <use xlink:href="#TimesNewRomanPSMT-6e" x="116.601562"/>
      <use xlink:href="#TimesNewRomanPSMT-65" x="166.601562"/>
      <use xlink:href="#TimesNewRomanPSMT-72" x="210.986328"/>
      <use xlink:href="#TimesNewRomanPSMT-61" x="244.287109"/>
      <use xlink:href="#TimesNewRomanPSMT-74" x="288.671875"/>
      <use xlink:href="#TimesNewRomanPSMT-69" x="316.455078"/>
      <use xlink:href="#TimesNewRomanPSMT-6f" x="344.238281"/>
      <use xlink:href="#TimesNewRomanPSMT-6e" x="394.238281"/>
     </g>
    </g>
   </g>
   <g id="matplotlib.axis_2">
    <g id="ytick_1">
     <g id="line2d_11">
      <path d="M 40.374531 215.678979 
L 218.38916 215.678979 
" clip-path="url(#p37d5717acd)" style="fill: none; stroke: #b0b0b0; stroke-opacity: 0.2; stroke-width: 0.5; stroke-linecap: square"/>
     </g>
     <g id="line2d_12">
      <defs>
       <path id="m3d20b3f9ab" d="M 0 0 
L -3.5 0 
" style="stroke: #000000; stroke-width: 0.8"/>
      </defs>
      <g>
       <use xlink:href="#m3d20b3f9ab" x="40.374531" y="215.678979" style="stroke: #000000; stroke-width: 0.8"/>
      </g>
     </g>
     <g id="text_7">
      <!-- 0.00 -->
      <g transform="translate(19.374531 218.456479) scale(0.08 -0.08)">
       <defs>
        <path id="TimesNewRomanPSMT-2e" d="M 800 606 
Q 947 606 1047 504 
Q 1147 403 1147 259 
Q 1147 116 1045 14 
Q 944 -88 800 -88 
Q 656 -88 554 14 
Q 453 116 453 259 
Q 453 406 554 506 
Q 656 606 800 606 
z
" transform="scale(0.015625)"/>
       </defs>
       <use xlink:href="#TimesNewRomanPSMT-30"/>
       <use xlink:href="#TimesNewRomanPSMT-2e" x="50"/>
       <use xlink:href="#TimesNewRomanPSMT-30" x="75"/>
       <use xlink:href="#TimesNewRomanPSMT-30" x="125"/>
      </g>
     </g>
    </g>
    <g id="ytick_2">
     <g id="line2d_13">
      <path d="M 40.374531 181.417106 
L 218.38916 181.417106 
" clip-path="url(#p37d5717acd)" style="fill: none; stroke: #b0b0b0; stroke-opacity: 0.2; stroke-width: 0.5; stroke-linecap: square"/>
     </g>
     <g id="line2d_14">
      <g>
       <use xlink:href="#m3d20b3f9ab" x="40.374531" y="181.417106" style="stroke: #000000; stroke-width: 0.8"/>
      </g>
     </g>
     <g id="text_8">
      <!-- 0.05 -->
      <g transform="translate(19.374531 184.194606) scale(0.08 -0.08)">
       <defs>
        <path id="TimesNewRomanPSMT-35" d="M 2778 4238 
L 2534 3706 
L 1259 3706 
L 981 3138 
Q 1809 3016 2294 2522 
Q 2709 2097 2709 1522 
Q 2709 1188 2573 903 
Q 2438 619 2231 419 
Q 2025 219 1772 97 
Q 1413 -75 1034 -75 
Q 653 -75 479 54 
Q 306 184 306 341 
Q 306 428 378 495 
Q 450 563 559 563 
Q 641 563 702 538 
Q 763 513 909 409 
Q 1144 247 1384 247 
Q 1750 247 2026 523 
Q 2303 800 2303 1197 
Q 2303 1581 2056 1914 
Q 1809 2247 1375 2428 
Q 1034 2569 447 2591 
L 1259 4238 
L 2778 4238 
z
" transform="scale(0.015625)"/>
       </defs>
       <use xlink:href="#TimesNewRomanPSMT-30"/>
       <use xlink:href="#TimesNewRomanPSMT-2e" x="50"/>
       <use xlink:href="#TimesNewRomanPSMT-30" x="75"/>
       <use xlink:href="#TimesNewRomanPSMT-35" x="125"/>
      </g>
     </g>
    </g>
    <g id="ytick_3">
     <g id="line2d_15">
      <path d="M 40.374531 147.155233 
L 218.38916 147.155233 
" clip-path="url(#p37d5717acd)" style="fill: none; stroke: #b0b0b0; stroke-opacity: 0.2; stroke-width: 0.5; stroke-linecap: square"/>
     </g>
     <g id="line2d_16">
      <g>
       <use xlink:href="#m3d20b3f9ab" x="40.374531" y="147.155233" style="stroke: #000000; stroke-width: 0.8"/>
      </g>
     </g>
     <g id="text_9">
      <!-- 0.10 -->
      <g transform="translate(19.374531 149.932733) scale(0.08 -0.08)">
       <use xlink:href="#TimesNewRomanPSMT-30"/>
       <use xlink:href="#TimesNewRomanPSMT-2e" x="50"/>
       <use xlink:href="#TimesNewRomanPSMT-31" x="75"/>
       <use xlink:href="#TimesNewRomanPSMT-30" x="125"/>
      </g>
     </g>
    </g>
    <g id="ytick_4">
     <g id="line2d_17">
      <path d="M 40.374531 112.893361 
L 218.38916 112.893361 
" clip-path="url(#p37d5717acd)" style="fill: none; stroke: #b0b0b0; stroke-opacity: 0.2; stroke-width: 0.5; stroke-linecap: square"/>
     </g>
     <g id="line2d_18">
      <g>
       <use xlink:href="#m3d20b3f9ab" x="40.374531" y="112.893361" style="stroke: #000000; stroke-width: 0.8"/>
      </g>
     </g>
     <g id="text_10">
      <!-- 0.15 -->
      <g transform="translate(19.374531 115.670861) scale(0.08 -0.08)">
       <use xlink:href="#TimesNewRomanPSMT-30"/>
       <use xlink:href="#TimesNewRomanPSMT-2e" x="50"/>
       <use xlink:href="#TimesNewRomanPSMT-31" x="75"/>
       <use xlink:href="#TimesNewRomanPSMT-35" x="125"/>
      </g>
     </g>
    </g>
    <g id="ytick_5">
     <g id="line2d_19">
      <path d="M 40.374531 78.631488 
L 218.38916 78.631488 
" clip-path="url(#p37d5717acd)" style="fill: none; stroke: #b0b0b0; stroke-opacity: 0.2; stroke-width: 0.5; stroke-linecap: square"/>
     </g>
     <g id="line2d_20">
      <g>
       <use xlink:href="#m3d20b3f9ab" x="40.374531" y="78.631488" style="stroke: #000000; stroke-width: 0.8"/>
      </g>
     </g>
     <g id="text_11">
      <!-- 0.20 -->
      <g transform="translate(19.374531 81.408988) scale(0.08 -0.08)">
       <use xlink:href="#TimesNewRomanPSMT-30"/>
       <use xlink:href="#TimesNewRomanPSMT-2e" x="50"/>
       <use xlink:href="#TimesNewRomanPSMT-32" x="75"/>
       <use xlink:href="#TimesNewRomanPSMT-30" x="125"/>
      </g>
     </g>
    </g>
    <g id="ytick_6">
     <g id="line2d_21">
      <path d="M 40.374531 44.369615 
L 218.38916 44.369615 
" clip-path="url(#p37d5717acd)" style="fill: none; stroke: #b0b0b0; stroke-opacity: 0.2; stroke-width: 0.5; stroke-linecap: square"/>
     </g>
     <g id="line2d_22">
      <g>
       <use xlink:href="#m3d20b3f9ab" x="40.374531" y="44.369615" style="stroke: #000000; stroke-width: 0.8"/>
      </g>
     </g>
     <g id="text_12">
      <!-- 0.25 -->
      <g transform="translate(19.374531 47.147115) scale(0.08 -0.08)">
       <use xlink:href="#TimesNewRomanPSMT-30"/>
       <use xlink:href="#TimesNewRomanPSMT-2e" x="50"/>
       <use xlink:href="#TimesNewRomanPSMT-32" x="75"/>
       <use xlink:href="#TimesNewRomanPSMT-35" x="125"/>
      </g>
     </g>
    </g>
    <g id="text_13">
     <!-- MAUVE -->
     <g transform="translate(13.449375 146.523828) rotate(-90) scale(0.09 -0.09)">
      <defs>
       <path id="TimesNewRomanPSMT-4d" d="M 2619 0 
L 981 3566 
L 981 734 
Q 981 344 1066 247 
Q 1181 116 1431 116 
L 1581 116 
L 1581 0 
L 106 0 
L 106 116 
L 256 116 
Q 525 116 638 278 
Q 706 378 706 734 
L 706 3503 
Q 706 3784 644 3909 
Q 600 4000 483 4061 
Q 366 4122 106 4122 
L 106 4238 
L 1306 4238 
L 2844 922 
L 4356 4238 
L 5556 4238 
L 5556 4122 
L 5409 4122 
Q 5138 4122 5025 3959 
Q 4956 3859 4956 3503 
L 4956 734 
Q 4956 344 5044 247 
Q 5159 116 5409 116 
L 5556 116 
L 5556 0 
L 3756 0 
L 3756 116 
L 3906 116 
Q 4178 116 4288 278 
Q 4356 378 4356 734 
L 4356 3566 
L 2722 0 
L 2619 0 
z
" transform="scale(0.015625)"/>
       <path id="TimesNewRomanPSMT-41" d="M 2928 1419 
L 1288 1419 
L 1000 750 
Q 894 503 894 381 
Q 894 284 986 211 
Q 1078 138 1384 116 
L 1384 0 
L 50 0 
L 50 116 
Q 316 163 394 238 
Q 553 388 747 847 
L 2238 4334 
L 2347 4334 
L 3822 809 
Q 4000 384 4145 257 
Q 4291 131 4550 116 
L 4550 0 
L 2878 0 
L 2878 116 
Q 3131 128 3220 200 
Q 3309 272 3309 375 
Q 3309 513 3184 809 
L 2928 1419 
z
M 2841 1650 
L 2122 3363 
L 1384 1650 
L 2841 1650 
z
" transform="scale(0.015625)"/>
       <path id="TimesNewRomanPSMT-55" d="M 3053 4122 
L 3053 4238 
L 4553 4238 
L 4553 4122 
L 4394 4122 
Q 4144 4122 4009 3913 
Q 3944 3816 3944 3463 
L 3944 1744 
Q 3944 1106 3817 754 
Q 3691 403 3320 151 
Q 2950 -100 2313 -100 
Q 1619 -100 1259 140 
Q 900 381 750 788 
Q 650 1066 650 1831 
L 650 3488 
Q 650 3878 542 4000 
Q 434 4122 194 4122 
L 34 4122 
L 34 4238 
L 1866 4238 
L 1866 4122 
L 1703 4122 
Q 1441 4122 1328 3956 
Q 1250 3844 1250 3488 
L 1250 1641 
Q 1250 1394 1295 1075 
Q 1341 756 1459 578 
Q 1578 400 1801 284 
Q 2025 169 2350 169 
Q 2766 169 3094 350 
Q 3422 531 3542 814 
Q 3663 1097 3663 1772 
L 3663 3488 
Q 3663 3884 3575 3984 
Q 3453 4122 3213 4122 
L 3053 4122 
z
" transform="scale(0.015625)"/>
       <path id="TimesNewRomanPSMT-56" d="M 4544 4238 
L 4544 4122 
Q 4319 4081 4203 3978 
Q 4038 3825 3909 3509 
L 2431 -97 
L 2316 -97 
L 728 3556 
Q 606 3838 556 3900 
Q 478 3997 364 4051 
Q 250 4106 56 4122 
L 56 4238 
L 1788 4238 
L 1788 4122 
Q 1494 4094 1406 4022 
Q 1319 3950 1319 3838 
Q 1319 3681 1463 3350 
L 2541 866 
L 3541 3319 
Q 3688 3681 3688 3822 
Q 3688 3913 3597 3995 
Q 3506 4078 3291 4113 
Q 3275 4116 3238 4122 
L 3238 4238 
L 4544 4238 
z
" transform="scale(0.015625)"/>
       <path id="TimesNewRomanPSMT-45" d="M 1338 4006 
L 1338 2331 
L 2269 2331 
Q 2631 2331 2753 2441 
Q 2916 2584 2934 2947 
L 3050 2947 
L 3050 1472 
L 2934 1472 
Q 2891 1781 2847 1869 
Q 2791 1978 2662 2040 
Q 2534 2103 2269 2103 
L 1338 2103 
L 1338 706 
Q 1338 425 1363 364 
Q 1388 303 1450 267 
Q 1513 231 1688 231 
L 2406 231 
Q 2766 231 2928 281 
Q 3091 331 3241 478 
Q 3434 672 3638 1063 
L 3763 1063 
L 3397 0 
L 131 0 
L 131 116 
L 281 116 
Q 431 116 566 188 
Q 666 238 702 338 
Q 738 438 738 747 
L 738 3500 
Q 738 3903 656 3997 
Q 544 4122 281 4122 
L 131 4122 
L 131 4238 
L 3397 4238 
L 3444 3309 
L 3322 3309 
Q 3256 3644 3176 3769 
Q 3097 3894 2941 3959 
Q 2816 4006 2500 4006 
L 1338 4006 
z
" transform="scale(0.015625)"/>
      </defs>
      <use xlink:href="#TimesNewRomanPSMT-4d"/>
      <use xlink:href="#TimesNewRomanPSMT-41" x="88.916016"/>
      <use xlink:href="#TimesNewRomanPSMT-55" x="161.132812"/>
      <use xlink:href="#TimesNewRomanPSMT-56" x="233.349609"/>
      <use xlink:href="#TimesNewRomanPSMT-45" x="305.566406"/>
     </g>
    </g>
   </g>
   <g id="line2d_23">
    <path d="M 44.162077 76.269925 
L 82.037529 141.521053 
L 119.912982 147.663058 
L 157.788435 163.353221 
L 195.663888 174.115067 
" clip-path="url(#p37d5717acd)" style="fill: none; stroke: #949494; stroke-opacity: 0.9; stroke-width: 1.2; stroke-linecap: square"/>
    <defs>
     <path id="m39a54b8d07" d="M 0 2.5 
C 0.663008 2.5 1.29895 2.236584 1.767767 1.767767 
C 2.236584 1.29895 2.5 0.663008 2.5 0 
C 2.5 -0.663008 2.236584 -1.29895 1.767767 -1.767767 
C 1.29895 -2.236584 0.663008 -2.5 0 -2.5 
C -0.663008 -2.5 -1.29895 -2.236584 -1.767767 -1.767767 
C -2.236584 -1.29895 -2.5 -0.663008 -2.5 0 
C -2.5 0.663008 -2.236584 1.29895 -1.767767 1.767767 
C -1.29895 2.236584 -0.663008 2.5 0 2.5 
z
" style="stroke: #949494; stroke-opacity: 0.9"/>
    </defs>
    <g clip-path="url(#p37d5717acd)">
     <use xlink:href="#m39a54b8d07" x="44.162077" y="76.269925" style="fill: #949494; fill-opacity: 0.9; stroke: #949494; stroke-opacity: 0.9"/>
     <use xlink:href="#m39a54b8d07" x="82.037529" y="141.521053" style="fill: #949494; fill-opacity: 0.9; stroke: #949494; stroke-opacity: 0.9"/>
     <use xlink:href="#m39a54b8d07" x="119.912982" y="147.663058" style="fill: #949494; fill-opacity: 0.9; stroke: #949494; stroke-opacity: 0.9"/>
     <use xlink:href="#m39a54b8d07" x="157.788435" y="163.353221" style="fill: #949494; fill-opacity: 0.9; stroke: #949494; stroke-opacity: 0.9"/>
     <use xlink:href="#m39a54b8d07" x="195.663888" y="174.115067" style="fill: #949494; fill-opacity: 0.9; stroke: #949494; stroke-opacity: 0.9"/>
    </g>
   </g>
   <g id="line2d_24">
    <path d="M 44.162077 77.615168 
L 82.037529 151.555592 
L 119.912982 172.985488 
L 157.788435 190.053721 
L 195.663888 199.394245 
" clip-path="url(#p37d5717acd)" style="fill: none; stroke-dasharray: 4.8,2.4; stroke-dashoffset: 0; stroke: #c44e52; stroke-opacity: 0.9; stroke-width: 1.2"/>
    <defs>
     <path id="ma399de0030" d="M 0 -2.5 
L -2.5 2.5 
L 2.5 2.5 
z
" style="stroke: #c44e52; stroke-opacity: 0.9; stroke-linejoin: miter"/>
    </defs>
    <g clip-path="url(#p37d5717acd)">
     <use xlink:href="#ma399de0030" x="44.162077" y="77.615168" style="fill: #c44e52; fill-opacity: 0.9; stroke: #c44e52; stroke-opacity: 0.9; stroke-linejoin: miter"/>
     <use xlink:href="#ma399de0030" x="82.037529" y="151.555592" style="fill: #c44e52; fill-opacity: 0.9; stroke: #c44e52; stroke-opacity: 0.9; stroke-linejoin: miter"/>
     <use xlink:href="#ma399de0030" x="119.912982" y="172.985488" style="fill: #c44e52; fill-opacity: 0.9; stroke: #c44e52; stroke-opacity: 0.9; stroke-linejoin: miter"/>
     <use xlink:href="#ma399de0030" x="157.788435" y="190.053721" style="fill: #c44e52; fill-opacity: 0.9; stroke: #c44e52; stroke-opacity: 0.9; stroke-linejoin: miter"/>
     <use xlink:href="#ma399de0030" x="195.663888" y="199.394245" style="fill: #c44e52; fill-opacity: 0.9; stroke: #c44e52; stroke-opacity: 0.9; stroke-linejoin: miter"/>
    </g>
   </g>
   <g id="line2d_25">
    <path d="M 44.162077 76.019982 
L 82.037529 134.895318 
L 119.912982 149.707233 
L 157.788435 158.347716 
L 195.663888 165.400969 
" clip-path="url(#p37d5717acd)" style="fill: none; stroke: #55a868; stroke-opacity: 0.9; stroke-width: 1.2; stroke-linecap: square"/>
    <defs>
     <path id="mb125caab25" d="M -2.5 2.5 
L 2.5 2.5 
L 2.5 -2.5 
L -2.5 -2.5 
z
" style="stroke: #55a868; stroke-opacity: 0.9; stroke-linejoin: miter"/>
    </defs>
    <g clip-path="url(#p37d5717acd)">
     <use xlink:href="#mb125caab25" x="44.162077" y="76.019982" style="fill: #55a868; fill-opacity: 0.9; stroke: #55a868; stroke-opacity: 0.9; stroke-linejoin: miter"/>
     <use xlink:href="#mb125caab25" x="82.037529" y="134.895318" style="fill: #55a868; fill-opacity: 0.9; stroke: #55a868; stroke-opacity: 0.9; stroke-linejoin: miter"/>
     <use xlink:href="#mb125caab25" x="119.912982" y="149.707233" style="fill: #55a868; fill-opacity: 0.9; stroke: #55a868; stroke-opacity: 0.9; stroke-linejoin: miter"/>
     <use xlink:href="#mb125caab25" x="157.788435" y="158.347716" style="fill: #55a868; fill-opacity: 0.9; stroke: #55a868; stroke-opacity: 0.9; stroke-linejoin: miter"/>
     <use xlink:href="#mb125caab25" x="195.663888" y="165.400969" style="fill: #55a868; fill-opacity: 0.9; stroke: #55a868; stroke-opacity: 0.9; stroke-linejoin: miter"/>
    </g>
   </g>
   <g id="PolyCollection_3">
    <defs>
     <path id="m4a9a176892" d="M 44.162077 -199.582319 
L 44.162077 -127.828497 
L 82.037529 -107.35731 
L 119.912982 -90.036962 
L 157.788435 -79.674436 
L 195.663888 -78.043244 
L 195.663888 -80.388431 
L 195.663888 -80.388431 
L 157.788435 -95.819151 
L 119.912982 -104.804492 
L 82.037529 -120.675998 
L 44.162077 -199.582319 
z
"/>
    </defs>
    <g clip-path="url(#p37d5717acd)">
     <use xlink:href="#m4a9a176892" x="0" y="249.31976" style="fill: #4c72b0; fill-opacity: 0.12"/>
    </g>
   </g>
   <g id="patch_3">
    <path d="M 40.374531 215.678979 
L 40.374531 44.369615 
" style="fill: none; stroke: #000000; stroke-width: 0.8; stroke-linejoin: miter; stroke-linecap: square"/>
   </g>
   <g id="patch_4">
    <path d="M 40.374531 215.678979 
L 218.38916 215.678979 
" style="fill: none; stroke: #000000; stroke-width: 0.8; stroke-linejoin: miter; stroke-linecap: square"/>
   </g>
   <g id="line2d_26">
    <path d="M 44.162077 85.614352 
L 82.037529 135.303106 
L 119.912982 151.899033 
L 157.788435 161.572966 
L 195.663888 170.103923 
" clip-path="url(#p37d5717acd)" style="fill: none; stroke: #4c72b0; stroke-width: 1.2; stroke-linecap: square"/>
    <defs>
     <path id="mcff8e0e876" d="M -0 3.535534 
L 3.535534 0 
L 0 -3.535534 
L -3.535534 -0 
z
" style="stroke: #4c72b0; stroke-linejoin: miter"/>
    </defs>
    <g clip-path="url(#p37d5717acd)">
     <use xlink:href="#mcff8e0e876" x="44.162077" y="85.614352" style="fill: #4c72b0; stroke: #4c72b0; stroke-linejoin: miter"/>
     <use xlink:href="#mcff8e0e876" x="82.037529" y="135.303106" style="fill: #4c72b0; stroke: #4c72b0; stroke-linejoin: miter"/>
     <use xlink:href="#mcff8e0e876" x="119.912982" y="151.899033" style="fill: #4c72b0; stroke: #4c72b0; stroke-linejoin: miter"/>
     <use xlink:href="#mcff8e0e876" x="157.788435" y="161.572966" style="fill: #4c72b0; stroke: #4c72b0; stroke-linejoin: miter"/>
     <use xlink:href="#mcff8e0e876" x="195.663888" y="170.103923" style="fill: #4c72b0; stroke: #4c72b0; stroke-linejoin: miter"/>
    </g>
   </g>
   <g id="patch_5">
    <path d="M 201.130802 174.217396 
Q 199.397032 174.184944 197.663262 174.152491 
" style="fill: none; stroke: #949494; stroke-width: 0.6; stroke-linecap: round"/>
   </g>
   <g id="text_14">
    <!-- No Filter -->
    <g style="fill: #949494" transform="translate(205.132751 172.297981) scale(0.08 -0.08)">
     <defs>
      <path id="TimesNewRomanPSMT-4e" d="M -84 4238 
L 1066 4238 
L 3656 1059 
L 3656 3503 
Q 3656 3894 3569 3991 
Q 3453 4122 3203 4122 
L 3056 4122 
L 3056 4238 
L 4531 4238 
L 4531 4122 
L 4381 4122 
Q 4113 4122 4000 3959 
Q 3931 3859 3931 3503 
L 3931 -69 
L 3819 -69 
L 1025 3344 
L 1025 734 
Q 1025 344 1109 247 
Q 1228 116 1475 116 
L 1625 116 
L 1625 0 
L 150 0 
L 150 116 
L 297 116 
Q 569 116 681 278 
Q 750 378 750 734 
L 750 3681 
Q 566 3897 470 3965 
Q 375 4034 191 4094 
Q 100 4122 -84 4122 
L -84 4238 
z
" transform="scale(0.015625)"/>
      <path id="TimesNewRomanPSMT-20" transform="scale(0.015625)"/>
      <path id="TimesNewRomanPSMT-46" d="M 1309 4006 
L 1309 2341 
L 2081 2341 
Q 2347 2341 2470 2458 
Q 2594 2575 2634 2922 
L 2750 2922 
L 2750 1488 
L 2634 1488 
Q 2631 1734 2570 1850 
Q 2509 1966 2401 2023 
Q 2294 2081 2081 2081 
L 1309 2081 
L 1309 750 
Q 1309 428 1350 325 
Q 1381 247 1481 191 
Q 1619 116 1769 116 
L 1922 116 
L 1922 0 
L 103 0 
L 103 116 
L 253 116 
Q 516 116 634 269 
Q 709 369 709 750 
L 709 3488 
Q 709 3809 669 3913 
Q 638 3991 541 4047 
Q 406 4122 253 4122 
L 103 4122 
L 103 4238 
L 3256 4238 
L 3297 3306 
L 3188 3306 
Q 3106 3603 2998 3742 
Q 2891 3881 2733 3943 
Q 2575 4006 2244 4006 
L 1309 4006 
z
" transform="scale(0.015625)"/>
      <path id="TimesNewRomanPSMT-6c" d="M 1184 4444 
L 1184 647 
Q 1184 378 1223 290 
Q 1263 203 1344 158 
Q 1425 113 1647 113 
L 1647 0 
L 244 0 
L 244 113 
Q 441 113 512 153 
Q 584 194 625 287 
Q 666 381 666 647 
L 666 3247 
Q 666 3731 644 3842 
Q 622 3953 573 3993 
Q 525 4034 450 4034 
Q 369 4034 244 3984 
L 191 4094 
L 1044 4444 
L 1184 4444 
z
" transform="scale(0.015625)"/>
     </defs>
     <use xlink:href="#TimesNewRomanPSMT-4e"/>
     <use xlink:href="#TimesNewRomanPSMT-6f" x="72.216797"/>
     <use xlink:href="#TimesNewRomanPSMT-20" x="122.216797"/>
     <use xlink:href="#TimesNewRomanPSMT-46" x="147.216797"/>
     <use xlink:href="#TimesNewRomanPSMT-69" x="202.832031"/>
     <use xlink:href="#TimesNewRomanPSMT-6c" x="230.615234"/>
     <use xlink:href="#TimesNewRomanPSMT-74" x="258.398438"/>
     <use xlink:href="#TimesNewRomanPSMT-65" x="286.181641"/>
     <use xlink:href="#TimesNewRomanPSMT-72" x="330.566406"/>
    </g>
    <!-- 0.061 -->
    <g style="fill: #949494" transform="translate(205.132751 180.675231) scale(0.08 -0.08)">
     <defs>
      <path id="TimesNewRomanPSMT-36" d="M 2869 4325 
L 2869 4209 
Q 2456 4169 2195 4045 
Q 1934 3922 1679 3669 
Q 1425 3416 1258 3105 
Q 1091 2794 978 2366 
Q 1428 2675 1881 2675 
Q 2316 2675 2634 2325 
Q 2953 1975 2953 1425 
Q 2953 894 2631 456 
Q 2244 -75 1606 -75 
Q 1172 -75 869 213 
Q 275 772 275 1663 
Q 275 2231 503 2743 
Q 731 3256 1154 3653 
Q 1578 4050 1965 4187 
Q 2353 4325 2688 4325 
L 2869 4325 
z
M 925 2138 
Q 869 1716 869 1456 
Q 869 1156 980 804 
Q 1091 453 1309 247 
Q 1469 100 1697 100 
Q 1969 100 2183 356 
Q 2397 613 2397 1088 
Q 2397 1622 2184 2012 
Q 1972 2403 1581 2403 
Q 1463 2403 1327 2353 
Q 1191 2303 925 2138 
z
" transform="scale(0.015625)"/>
     </defs>
     <use xlink:href="#TimesNewRomanPSMT-30"/>
     <use xlink:href="#TimesNewRomanPSMT-2e" x="50"/>
     <use xlink:href="#TimesNewRomanPSMT-30" x="75"/>
     <use xlink:href="#TimesNewRomanPSMT-36" x="125"/>
     <use xlink:href="#TimesNewRomanPSMT-31" x="175"/>
    </g>
   </g>
   <g id="patch_6">
    <path d="M 201.159017 198.464385 
Q 199.397517 198.762458 197.636017 199.060531 
" style="fill: none; stroke: #c44e52; stroke-width: 0.6; stroke-linecap: round"/>
   </g>
   <g id="text_15">
    <!-- Pointwise -->
    <g style="fill: #c44e52" transform="translate(205.132751 192.855105) scale(0.08 -0.08)">
     <defs>
      <path id="TimesNewRomanPSMT-50" d="M 1313 1984 
L 1313 750 
Q 1313 350 1400 253 
Q 1519 116 1759 116 
L 1922 116 
L 1922 0 
L 106 0 
L 106 116 
L 266 116 
Q 534 116 650 291 
Q 713 388 713 750 
L 713 3488 
Q 713 3888 628 3984 
Q 506 4122 266 4122 
L 106 4122 
L 106 4238 
L 1659 4238 
Q 2228 4238 2556 4120 
Q 2884 4003 3109 3725 
Q 3334 3447 3334 3066 
Q 3334 2547 2992 2222 
Q 2650 1897 2025 1897 
Q 1872 1897 1694 1919 
Q 1516 1941 1313 1984 
z
M 1313 2163 
Q 1478 2131 1606 2115 
Q 1734 2100 1825 2100 
Q 2150 2100 2386 2351 
Q 2622 2603 2622 3003 
Q 2622 3278 2509 3514 
Q 2397 3750 2190 3867 
Q 1984 3984 1722 3984 
Q 1563 3984 1313 3925 
L 1313 2163 
z
" transform="scale(0.015625)"/>
      <path id="TimesNewRomanPSMT-77" d="M 41 2863 
L 1241 2863 
L 1241 2747 
Q 1075 2734 1023 2687 
Q 972 2641 972 2553 
Q 972 2456 1025 2319 
L 1638 672 
L 2253 2013 
L 2091 2434 
Q 2016 2622 1894 2694 
Q 1825 2738 1638 2747 
L 1638 2863 
L 3000 2863 
L 3000 2747 
Q 2775 2738 2681 2666 
Q 2619 2616 2619 2506 
Q 2619 2444 2644 2378 
L 3294 734 
L 3897 2319 
Q 3959 2488 3959 2588 
Q 3959 2647 3898 2694 
Q 3838 2741 3659 2747 
L 3659 2863 
L 4563 2863 
L 4563 2747 
Q 4291 2706 4163 2378 
L 3206 -88 
L 3078 -88 
L 2363 1741 
L 1528 -88 
L 1413 -88 
L 494 2319 
Q 403 2547 315 2626 
Q 228 2706 41 2747 
L 41 2863 
z
" transform="scale(0.015625)"/>
      <path id="TimesNewRomanPSMT-73" d="M 2050 2947 
L 2050 1972 
L 1947 1972 
Q 1828 2431 1642 2597 
Q 1456 2763 1169 2763 
Q 950 2763 815 2647 
Q 681 2531 681 2391 
Q 681 2216 781 2091 
Q 878 1963 1175 1819 
L 1631 1597 
Q 2266 1288 2266 781 
Q 2266 391 1970 151 
Q 1675 -88 1309 -88 
Q 1047 -88 709 6 
Q 606 38 541 38 
Q 469 38 428 -44 
L 325 -44 
L 325 978 
L 428 978 
Q 516 541 762 319 
Q 1009 97 1316 97 
Q 1531 97 1667 223 
Q 1803 350 1803 528 
Q 1803 744 1651 891 
Q 1500 1038 1047 1263 
Q 594 1488 453 1669 
Q 313 1847 313 2119 
Q 313 2472 555 2709 
Q 797 2947 1181 2947 
Q 1350 2947 1591 2875 
Q 1750 2828 1803 2828 
Q 1853 2828 1881 2850 
Q 1909 2872 1947 2947 
L 2050 2947 
z
" transform="scale(0.015625)"/>
     </defs>
     <use xlink:href="#TimesNewRomanPSMT-50"/>
     <use xlink:href="#TimesNewRomanPSMT-6f" x="55.615234"/>
     <use xlink:href="#TimesNewRomanPSMT-69" x="105.615234"/>
     <use xlink:href="#TimesNewRomanPSMT-6e" x="133.398438"/>
     <use xlink:href="#TimesNewRomanPSMT-74" x="183.398438"/>
     <use xlink:href="#TimesNewRomanPSMT-77" x="211.181641"/>
     <use xlink:href="#TimesNewRomanPSMT-69" x="283.398438"/>
     <use xlink:href="#TimesNewRomanPSMT-73" x="311.181641"/>
     <use xlink:href="#TimesNewRomanPSMT-65" x="350.097656"/>
    </g>
    <!-- 0.024 -->
    <g style="fill: #c44e52" transform="translate(205.132751 201.232355) scale(0.08 -0.08)">
     <use xlink:href="#TimesNewRomanPSMT-30"/>
     <use xlink:href="#TimesNewRomanPSMT-2e" x="50"/>
     <use xlink:href="#TimesNewRomanPSMT-30" x="75"/>
     <use xlink:href="#TimesNewRomanPSMT-32" x="125"/>
     <use xlink:href="#TimesNewRomanPSMT-34" x="175"/>
    </g>
   </g>
   <g id="patch_7">
    <path d="M 212.940871 144.804704 
Q 204.944572 154.337265 196.948273 163.869826 
" style="fill: none; stroke: #55a868; stroke-width: 0.6; stroke-linecap: round"/>
   </g>
   <g id="text_16">
    <!-- Dispersion -->
    <g style="fill: #55a868" transform="translate(205.132751 131.183734) scale(0.08 -0.08)">
     <defs>
      <path id="TimesNewRomanPSMT-44" d="M 109 0 
L 109 116 
L 269 116 
Q 538 116 650 288 
Q 719 391 719 750 
L 719 3488 
Q 719 3884 631 3984 
Q 509 4122 269 4122 
L 109 4122 
L 109 4238 
L 1834 4238 
Q 2784 4238 3279 4022 
Q 3775 3806 4076 3303 
Q 4378 2800 4378 2141 
Q 4378 1256 3841 663 
Q 3238 0 2003 0 
L 109 0 
z
M 1319 306 
Q 1716 219 1984 219 
Q 2709 219 3187 728 
Q 3666 1238 3666 2109 
Q 3666 2988 3187 3494 
Q 2709 4000 1959 4000 
Q 1678 4000 1319 3909 
L 1319 306 
z
" transform="scale(0.015625)"/>
      <path id="TimesNewRomanPSMT-70" d="M -6 2578 
L 875 2934 
L 994 2934 
L 994 2266 
Q 1216 2644 1439 2795 
Q 1663 2947 1909 2947 
Q 2341 2947 2628 2609 
Q 2981 2197 2981 1534 
Q 2981 794 2556 309 
Q 2206 -88 1675 -88 
Q 1444 -88 1275 -22 
Q 1150 25 994 166 
L 994 -706 
Q 994 -1000 1030 -1079 
Q 1066 -1159 1155 -1206 
Q 1244 -1253 1478 -1253 
L 1478 -1369 
L -22 -1369 
L -22 -1253 
L 56 -1253 
Q 228 -1256 350 -1188 
Q 409 -1153 442 -1076 
Q 475 -1000 475 -688 
L 475 2019 
Q 475 2297 450 2372 
Q 425 2447 370 2484 
Q 316 2522 222 2522 
Q 147 2522 31 2478 
L -6 2578 
z
M 994 2081 
L 994 1013 
Q 994 666 1022 556 
Q 1066 375 1236 237 
Q 1406 100 1666 100 
Q 1978 100 2172 344 
Q 2425 663 2425 1241 
Q 2425 1897 2138 2250 
Q 1938 2494 1663 2494 
Q 1513 2494 1366 2419 
Q 1253 2363 994 2081 
z
" transform="scale(0.015625)"/>
     </defs>
     <use xlink:href="#TimesNewRomanPSMT-44"/>
     <use xlink:href="#TimesNewRomanPSMT-69" x="72.216797"/>
     <use xlink:href="#TimesNewRomanPSMT-73" x="100"/>
     <use xlink:href="#TimesNewRomanPSMT-70" x="138.916016"/>
     <use xlink:href="#TimesNewRomanPSMT-65" x="188.916016"/>
     <use xlink:href="#TimesNewRomanPSMT-72" x="233.300781"/>
     <use xlink:href="#TimesNewRomanPSMT-73" x="266.601562"/>
     <use xlink:href="#TimesNewRomanPSMT-69" x="305.517578"/>
     <use xlink:href="#TimesNewRomanPSMT-6f" x="333.300781"/>
     <use xlink:href="#TimesNewRomanPSMT-6e" x="383.300781"/>
    </g>
    <!-- 0.073 -->
    <g style="fill: #55a868" transform="translate(205.132751 139.560984) scale(0.08 -0.08)">
     <defs>
      <path id="TimesNewRomanPSMT-37" d="M 644 4238 
L 2916 4238 
L 2916 4119 
L 1503 -88 
L 1153 -88 
L 2419 3728 
L 1253 3728 
Q 900 3728 750 3644 
Q 488 3500 328 3200 
L 238 3234 
L 644 4238 
z
" transform="scale(0.015625)"/>
     </defs>
     <use xlink:href="#TimesNewRomanPSMT-30"/>
     <use xlink:href="#TimesNewRomanPSMT-2e" x="50"/>
     <use xlink:href="#TimesNewRomanPSMT-30" x="75"/>
     <use xlink:href="#TimesNewRomanPSMT-37" x="125"/>
     <use xlink:href="#TimesNewRomanPSMT-33" x="175"/>
    </g>
   </g>
   <g id="patch_8">
    <path d="M 204.175519 164.876209 
Q 200.773776 166.965508 197.372033 169.054807 
" style="fill: none; stroke: #4c72b0; stroke-width: 0.6; stroke-linecap: round"/>
   </g>
   <g id="text_17">
    <!-- Set-Aware -->
    <g style="fill: #4c72b0" transform="translate(205.132751 151.740858) scale(0.08 -0.08)">
     <defs>
      <path id="TimesNewRomanPSMT-53" d="M 2934 4334 
L 2934 2869 
L 2819 2869 
Q 2763 3291 2617 3541 
Q 2472 3791 2203 3937 
Q 1934 4084 1647 4084 
Q 1322 4084 1109 3886 
Q 897 3688 897 3434 
Q 897 3241 1031 3081 
Q 1225 2847 1953 2456 
Q 2547 2138 2764 1967 
Q 2981 1797 3098 1565 
Q 3216 1334 3216 1081 
Q 3216 600 2842 251 
Q 2469 -97 1881 -97 
Q 1697 -97 1534 -69 
Q 1438 -53 1133 45 
Q 828 144 747 144 
Q 669 144 623 97 
Q 578 50 556 -97 
L 441 -97 
L 441 1356 
L 556 1356 
Q 638 900 775 673 
Q 913 447 1195 297 
Q 1478 147 1816 147 
Q 2206 147 2432 353 
Q 2659 559 2659 841 
Q 2659 997 2573 1156 
Q 2488 1316 2306 1453 
Q 2184 1547 1640 1851 
Q 1097 2156 867 2337 
Q 638 2519 519 2737 
Q 400 2956 400 3219 
Q 400 3675 750 4004 
Q 1100 4334 1641 4334 
Q 1978 4334 2356 4169 
Q 2531 4091 2603 4091 
Q 2684 4091 2736 4139 
Q 2788 4188 2819 4334 
L 2934 4334 
z
" transform="scale(0.015625)"/>
      <path id="TimesNewRomanPSMT-2d" d="M 259 1672 
L 1875 1672 
L 1875 1200 
L 259 1200 
L 259 1672 
z
" transform="scale(0.015625)"/>
     </defs>
     <use xlink:href="#TimesNewRomanPSMT-53"/>
     <use xlink:href="#TimesNewRomanPSMT-65" x="55.615234"/>
     <use xlink:href="#TimesNewRomanPSMT-74" x="100"/>
     <use xlink:href="#TimesNewRomanPSMT-2d" x="127.783203"/>
     <use xlink:href="#TimesNewRomanPSMT-41" x="161.083984"/>
     <use xlink:href="#TimesNewRomanPSMT-77" x="224.175781"/>
     <use xlink:href="#TimesNewRomanPSMT-61" x="296.392578"/>
     <use xlink:href="#TimesNewRomanPSMT-72" x="340.777344"/>
     <use xlink:href="#TimesNewRomanPSMT-65" x="374.078125"/>
    </g>
    <!-- 0.067 -->
    <g style="fill: #4c72b0" transform="translate(205.132751 160.118108) scale(0.08 -0.08)">
     <use xlink:href="#TimesNewRomanPSMT-30"/>
     <use xlink:href="#TimesNewRomanPSMT-2e" x="50"/>
     <use xlink:href="#TimesNewRomanPSMT-30" x="75"/>
     <use xlink:href="#TimesNewRomanPSMT-36" x="125"/>
     <use xlink:href="#TimesNewRomanPSMT-37" x="175"/>
    </g>
   </g>
   <g id="text_18">
    <!-- MAUVE ↑ -->
    <g transform="translate(109.507314 38.369615) scale(0.09 -0.09)">
     <defs>
      <path id="TimesNewRomanPSMT-2191" d="M 478 2894 
Q 931 3309 1167 3612 
Q 1403 3916 1519 4184 
L 1663 4184 
Q 1809 3875 2042 3584 
Q 2275 3294 2725 2891 
L 2725 2650 
Q 2097 2944 1759 3266 
L 1759 -1341 
L 1444 -1341 
L 1444 3266 
Q 1144 3028 995 2934 
Q 847 2841 478 2656 
L 478 2894 
z
" transform="scale(0.015625)"/>
     </defs>
     <use xlink:href="#TimesNewRomanPSMT-4d"/>
     <use xlink:href="#TimesNewRomanPSMT-41" x="88.916016"/>
     <use xlink:href="#TimesNewRomanPSMT-55" x="161.132812"/>
     <use xlink:href="#TimesNewRomanPSMT-56" x="233.349609"/>
     <use xlink:href="#TimesNewRomanPSMT-45" x="305.566406"/>
     <use xlink:href="#TimesNewRomanPSMT-20" x="366.650391"/>
     <use xlink:href="#TimesNewRomanPSMT-2191" x="391.650391"/>
    </g>
   </g>
  </g>
  <g id="axes_2">
   <g id="patch_9">
    <path d="M 276.974531 215.678979 
L 454.98916 215.678979 
L 454.98916 44.369615 
L 276.974531 44.369615 
z
" style="fill: #ffffff"/>
   </g>
   <g id="PolyCollection_4">
    <defs>
     <path id="m018594cf84" d="M 280.762077 -40.550265 
L 280.762077 -38.108222 
L 318.637529 -51.018217 
L 356.512982 -73.878481 
L 394.388435 -115.51403 
L 432.263888 -185.548279 
L 432.263888 -193.469717 
L 432.263888 -193.469717 
L 394.388435 -133.509861 
L 356.512982 -80.010076 
L 318.637529 -51.853147 
L 280.762077 -40.550265 
z
"/>
    </defs>
    <g clip-path="url(#p6c21a49757)">
     <use xlink:href="#m018594cf84" x="0" y="249.31976" style="fill: #c44e52; fill-opacity: 0.08"/>
    </g>
   </g>
   <g id="PolyCollection_5">
    <defs>
     <path id="me35ee04ab2" d="M 280.762077 -45.508266 
L 280.762077 -43.126119 
L 318.637529 -65.169628 
L 356.512982 -94.267384 
L 394.388435 -124.167521 
L 432.263888 -157.054272 
L 432.263888 -179.459305 
L 432.263888 -179.459305 
L 394.388435 -150.997517 
L 356.512982 -113.79453 
L 318.637529 -73.257123 
L 280.762077 -45.508266 
z
"/>
    </defs>
    <g clip-path="url(#p6c21a49757)">
     <use xlink:href="#me35ee04ab2" x="0" y="249.31976" style="fill: #55a868; fill-opacity: 0.08"/>
    </g>
   </g>
   <g id="matplotlib.axis_3">
    <g id="xtick_6">
     <g id="line2d_27">
      <path d="M 280.762077 215.678979 
L 280.762077 44.369615 
" clip-path="url(#p6c21a49757)" style="fill: none; stroke: #b0b0b0; stroke-opacity: 0.2; stroke-width: 0.5; stroke-linecap: square"/>
     </g>
     <g id="line2d_28">
      <g>
       <use xlink:href="#m4ad6fa0493" x="280.762077" y="215.678979" style="stroke: #000000; stroke-width: 0.8"/>
      </g>
     </g>
     <g id="text_19">
      <!-- 0 -->
      <g transform="translate(278.762077 228.233979) scale(0.08 -0.08)">
       <use xlink:href="#TimesNewRomanPSMT-30"/>
      </g>
     </g>
    </g>
    <g id="xtick_7">
     <g id="line2d_29">
      <path d="M 318.637529 215.678979 
L 318.637529 44.369615 
" clip-path="url(#p6c21a49757)" style="fill: none; stroke: #b0b0b0; stroke-opacity: 0.2; stroke-width: 0.5; stroke-linecap: square"/>
     </g>
     <g id="line2d_30">
      <g>
       <use xlink:href="#m4ad6fa0493" x="318.637529" y="215.678979" style="stroke: #000000; stroke-width: 0.8"/>
      </g>
     </g>
     <g id="text_20">
      <!-- 1 -->
      <g transform="translate(316.637529 228.233979) scale(0.08 -0.08)">
       <use xlink:href="#TimesNewRomanPSMT-31"/>
      </g>
     </g>
    </g>
    <g id="xtick_8">
     <g id="line2d_31">
      <path d="M 356.512982 215.678979 
L 356.512982 44.369615 
" clip-path="url(#p6c21a49757)" style="fill: none; stroke: #b0b0b0; stroke-opacity: 0.2; stroke-width: 0.5; stroke-linecap: square"/>
     </g>
     <g id="line2d_32">
      <g>
       <use xlink:href="#m4ad6fa0493" x="356.512982" y="215.678979" style="stroke: #000000; stroke-width: 0.8"/>
      </g>
     </g>
     <g id="text_21">
      <!-- 2 -->
      <g transform="translate(354.512982 228.233979) scale(0.08 -0.08)">
       <use xlink:href="#TimesNewRomanPSMT-32"/>
      </g>
     </g>
    </g>
    <g id="xtick_9">
     <g id="line2d_33">
      <path d="M 394.388435 215.678979 
L 394.388435 44.369615 
" clip-path="url(#p6c21a49757)" style="fill: none; stroke: #b0b0b0; stroke-opacity: 0.2; stroke-width: 0.5; stroke-linecap: square"/>
     </g>
     <g id="line2d_34">
      <g>
       <use xlink:href="#m4ad6fa0493" x="394.388435" y="215.678979" style="stroke: #000000; stroke-width: 0.8"/>
      </g>
     </g>
     <g id="text_22">
      <!-- 3 -->
      <g transform="translate(392.388435 228.233979) scale(0.08 -0.08)">
       <use xlink:href="#TimesNewRomanPSMT-33"/>
      </g>
     </g>
    </g>
    <g id="xtick_10">
     <g id="line2d_35">
      <path d="M 432.263888 215.678979 
L 432.263888 44.369615 
" clip-path="url(#p6c21a49757)" style="fill: none; stroke: #b0b0b0; stroke-opacity: 0.2; stroke-width: 0.5; stroke-linecap: square"/>
     </g>
     <g id="line2d_36">
      <g>
       <use xlink:href="#m4ad6fa0493" x="432.263888" y="215.678979" style="stroke: #000000; stroke-width: 0.8"/>
      </g>
     </g>
     <g id="text_23">
      <!-- 4 -->
      <g transform="translate(430.263888 228.233979) scale(0.08 -0.08)">
       <use xlink:href="#TimesNewRomanPSMT-34"/>
      </g>
     </g>
    </g>
    <g id="text_24">
     <!-- Generation -->
     <g transform="translate(345.990596 240.194604) scale(0.09 -0.09)">
      <use xlink:href="#TimesNewRomanPSMT-47"/>
      <use xlink:href="#TimesNewRomanPSMT-65" x="72.216797"/>
      <use xlink:href="#TimesNewRomanPSMT-6e" x="116.601562"/>
      <use xlink:href="#TimesNewRomanPSMT-65" x="166.601562"/>
      <use xlink:href="#TimesNewRomanPSMT-72" x="210.986328"/>
      <use xlink:href="#TimesNewRomanPSMT-61" x="244.287109"/>
      <use xlink:href="#TimesNewRomanPSMT-74" x="288.671875"/>
      <use xlink:href="#TimesNewRomanPSMT-69" x="316.455078"/>
      <use xlink:href="#TimesNewRomanPSMT-6f" x="344.238281"/>
      <use xlink:href="#TimesNewRomanPSMT-6e" x="394.238281"/>
     </g>
    </g>
   </g>
   <g id="matplotlib.axis_4">
    <g id="ytick_7">
     <g id="line2d_37">
      <path d="M 276.974531 203.144147 
L 454.98916 203.144147 
" clip-path="url(#p6c21a49757)" style="fill: none; stroke: #b0b0b0; stroke-opacity: 0.2; stroke-width: 0.5; stroke-linecap: square"/>
     </g>
     <g id="line2d_38">
      <g>
       <use xlink:href="#m3d20b3f9ab" x="276.974531" y="203.144147" style="stroke: #000000; stroke-width: 0.8"/>
      </g>
     </g>
     <g id="text_25">
      <!-- 50 -->
      <g transform="translate(261.974531 205.921647) scale(0.08 -0.08)">
       <use xlink:href="#TimesNewRomanPSMT-35"/>
       <use xlink:href="#TimesNewRomanPSMT-30" x="50"/>
      </g>
     </g>
    </g>
    <g id="ytick_8">
     <g id="line2d_39">
      <path d="M 276.974531 182.252761 
L 454.98916 182.252761 
" clip-path="url(#p6c21a49757)" style="fill: none; stroke: #b0b0b0; stroke-opacity: 0.2; stroke-width: 0.5; stroke-linecap: square"/>
     </g>
     <g id="line2d_40">
      <g>
       <use xlink:href="#m3d20b3f9ab" x="276.974531" y="182.252761" style="stroke: #000000; stroke-width: 0.8"/>
      </g>
     </g>
     <g id="text_26">
      <!-- 75 -->
      <g transform="translate(261.974531 185.030261) scale(0.08 -0.08)">
       <use xlink:href="#TimesNewRomanPSMT-37"/>
       <use xlink:href="#TimesNewRomanPSMT-35" x="50"/>
      </g>
     </g>
    </g>
    <g id="ytick_9">
     <g id="line2d_41">
      <path d="M 276.974531 161.361376 
L 454.98916 161.361376 
" clip-path="url(#p6c21a49757)" style="fill: none; stroke: #b0b0b0; stroke-opacity: 0.2; stroke-width: 0.5; stroke-linecap: square"/>
     </g>
     <g id="line2d_42">
      <g>
       <use xlink:href="#m3d20b3f9ab" x="276.974531" y="161.361376" style="stroke: #000000; stroke-width: 0.8"/>
      </g>
     </g>
     <g id="text_27">
      <!-- 100 -->
      <g transform="translate(257.974531 164.138876) scale(0.08 -0.08)">
       <use xlink:href="#TimesNewRomanPSMT-31"/>
       <use xlink:href="#TimesNewRomanPSMT-30" x="50"/>
       <use xlink:href="#TimesNewRomanPSMT-30" x="100"/>
      </g>
     </g>
    </g>
    <g id="ytick_10">
     <g id="line2d_43">
      <path d="M 276.974531 140.46999 
L 454.98916 140.46999 
" clip-path="url(#p6c21a49757)" style="fill: none; stroke: #b0b0b0; stroke-opacity: 0.2; stroke-width: 0.5; stroke-linecap: square"/>
     </g>
     <g id="line2d_44">
      <g>
       <use xlink:href="#m3d20b3f9ab" x="276.974531" y="140.46999" style="stroke: #000000; stroke-width: 0.8"/>
      </g>
     </g>
     <g id="text_28">
      <!-- 125 -->
      <g transform="translate(257.974531 143.24749) scale(0.08 -0.08)">
       <use xlink:href="#TimesNewRomanPSMT-31"/>
       <use xlink:href="#TimesNewRomanPSMT-32" x="50"/>
       <use xlink:href="#TimesNewRomanPSMT-35" x="100"/>
      </g>
     </g>
    </g>
    <g id="ytick_11">
     <g id="line2d_45">
      <path d="M 276.974531 119.578604 
L 454.98916 119.578604 
" clip-path="url(#p6c21a49757)" style="fill: none; stroke: #b0b0b0; stroke-opacity: 0.2; stroke-width: 0.5; stroke-linecap: square"/>
     </g>
     <g id="line2d_46">
      <g>
       <use xlink:href="#m3d20b3f9ab" x="276.974531" y="119.578604" style="stroke: #000000; stroke-width: 0.8"/>
      </g>
     </g>
     <g id="text_29">
      <!-- 150 -->
      <g transform="translate(257.974531 122.356104) scale(0.08 -0.08)">
       <use xlink:href="#TimesNewRomanPSMT-31"/>
       <use xlink:href="#TimesNewRomanPSMT-35" x="50"/>
       <use xlink:href="#TimesNewRomanPSMT-30" x="100"/>
      </g>
     </g>
    </g>
    <g id="ytick_12">
     <g id="line2d_47">
      <path d="M 276.974531 98.687218 
L 454.98916 98.687218 
" clip-path="url(#p6c21a49757)" style="fill: none; stroke: #b0b0b0; stroke-opacity: 0.2; stroke-width: 0.5; stroke-linecap: square"/>
     </g>
     <g id="line2d_48">
      <g>
       <use xlink:href="#m3d20b3f9ab" x="276.974531" y="98.687218" style="stroke: #000000; stroke-width: 0.8"/>
      </g>
     </g>
     <g id="text_30">
      <!-- 175 -->
      <g transform="translate(257.974531 101.464718) scale(0.08 -0.08)">
       <use xlink:href="#TimesNewRomanPSMT-31"/>
       <use xlink:href="#TimesNewRomanPSMT-37" x="50"/>
       <use xlink:href="#TimesNewRomanPSMT-35" x="100"/>
      </g>
     </g>
    </g>
    <g id="ytick_13">
     <g id="line2d_49">
      <path d="M 276.974531 77.795832 
L 454.98916 77.795832 
" clip-path="url(#p6c21a49757)" style="fill: none; stroke: #b0b0b0; stroke-opacity: 0.2; stroke-width: 0.5; stroke-linecap: square"/>
     </g>
     <g id="line2d_50">
      <g>
       <use xlink:href="#m3d20b3f9ab" x="276.974531" y="77.795832" style="stroke: #000000; stroke-width: 0.8"/>
      </g>
     </g>
     <g id="text_31">
      <!-- 200 -->
      <g transform="translate(257.974531 80.573332) scale(0.08 -0.08)">
       <use xlink:href="#TimesNewRomanPSMT-32"/>
       <use xlink:href="#TimesNewRomanPSMT-30" x="50"/>
       <use xlink:href="#TimesNewRomanPSMT-30" x="100"/>
      </g>
     </g>
    </g>
    <g id="ytick_14">
     <g id="line2d_51">
      <path d="M 276.974531 56.904446 
L 454.98916 56.904446 
" clip-path="url(#p6c21a49757)" style="fill: none; stroke: #b0b0b0; stroke-opacity: 0.2; stroke-width: 0.5; stroke-linecap: square"/>
     </g>
     <g id="line2d_52">
      <g>
       <use xlink:href="#m3d20b3f9ab" x="276.974531" y="56.904446" style="stroke: #000000; stroke-width: 0.8"/>
      </g>
     </g>
     <g id="text_32">
      <!-- 225 -->
      <g transform="translate(257.974531 59.681946) scale(0.08 -0.08)">
       <use xlink:href="#TimesNewRomanPSMT-32"/>
       <use xlink:href="#TimesNewRomanPSMT-32" x="50"/>
       <use xlink:href="#TimesNewRomanPSMT-35" x="100"/>
      </g>
     </g>
    </g>
    <g id="text_33">
     <!-- Validation PPL -->
     <g transform="translate(252.049375 157.397656) rotate(-90) scale(0.09 -0.09)">
      <defs>
       <path id="TimesNewRomanPSMT-64" d="M 2222 322 
Q 2013 103 1813 7 
Q 1613 -88 1381 -88 
Q 913 -88 563 304 
Q 213 697 213 1313 
Q 213 1928 600 2439 
Q 988 2950 1597 2950 
Q 1975 2950 2222 2709 
L 2222 3238 
Q 2222 3728 2198 3840 
Q 2175 3953 2125 3993 
Q 2075 4034 2000 4034 
Q 1919 4034 1784 3984 
L 1744 4094 
L 2597 4444 
L 2738 4444 
L 2738 1134 
Q 2738 631 2761 520 
Q 2784 409 2836 365 
Q 2888 322 2956 322 
Q 3041 322 3181 375 
L 3216 266 
L 2366 -88 
L 2222 -88 
L 2222 322 
z
M 2222 541 
L 2222 2016 
Q 2203 2228 2109 2403 
Q 2016 2578 1861 2667 
Q 1706 2756 1559 2756 
Q 1284 2756 1069 2509 
Q 784 2184 784 1559 
Q 784 928 1059 592 
Q 1334 256 1672 256 
Q 1956 256 2222 541 
z
" transform="scale(0.015625)"/>
       <path id="TimesNewRomanPSMT-4c" d="M 3669 1172 
L 3772 1150 
L 3409 0 
L 128 0 
L 128 116 
L 288 116 
Q 556 116 672 291 
Q 738 391 738 753 
L 738 3488 
Q 738 3884 650 3984 
Q 528 4122 288 4122 
L 128 4122 
L 128 4238 
L 2047 4238 
L 2047 4122 
Q 1709 4125 1573 4059 
Q 1438 3994 1388 3894 
Q 1338 3794 1338 3416 
L 1338 753 
Q 1338 494 1388 397 
Q 1425 331 1503 300 
Q 1581 269 1991 269 
L 2300 269 
Q 2788 269 2984 341 
Q 3181 413 3343 595 
Q 3506 778 3669 1172 
z
" transform="scale(0.015625)"/>
      </defs>
      <use xlink:href="#TimesNewRomanPSMT-56"/>
      <use xlink:href="#TimesNewRomanPSMT-61" x="61.091797"/>
      <use xlink:href="#TimesNewRomanPSMT-6c" x="105.476562"/>
      <use xlink:href="#TimesNewRomanPSMT-69" x="133.259766"/>
      <use xlink:href="#TimesNewRomanPSMT-64" x="161.042969"/>
      <use xlink:href="#TimesNewRomanPSMT-61" x="211.042969"/>
      <use xlink:href="#TimesNewRomanPSMT-74" x="255.427734"/>
      <use xlink:href="#TimesNewRomanPSMT-69" x="283.210938"/>
      <use xlink:href="#TimesNewRomanPSMT-6f" x="310.994141"/>
      <use xlink:href="#TimesNewRomanPSMT-6e" x="360.994141"/>
      <use xlink:href="#TimesNewRomanPSMT-20" x="410.994141"/>
      <use xlink:href="#TimesNewRomanPSMT-50" x="435.994141"/>
      <use xlink:href="#TimesNewRomanPSMT-50" x="491.609375"/>
      <use xlink:href="#TimesNewRomanPSMT-4c" x="547.224609"/>
     </g>
    </g>
   </g>
   <g id="line2d_53">
    <path d="M 280.762077 205.723047 
L 318.637529 181.370813 
L 356.512982 150.238527 
L 394.388435 121.715266 
L 432.263888 100.110124 
" clip-path="url(#p6c21a49757)" style="fill: none; stroke: #949494; stroke-opacity: 0.9; stroke-width: 1.2; stroke-linecap: square"/>
    <g clip-path="url(#p6c21a49757)">
     <use xlink:href="#m39a54b8d07" x="280.762077" y="205.723047" style="fill: #949494; fill-opacity: 0.9; stroke: #949494; stroke-opacity: 0.9"/>
     <use xlink:href="#m39a54b8d07" x="318.637529" y="181.370813" style="fill: #949494; fill-opacity: 0.9; stroke: #949494; stroke-opacity: 0.9"/>
     <use xlink:href="#m39a54b8d07" x="356.512982" y="150.238527" style="fill: #949494; fill-opacity: 0.9; stroke: #949494; stroke-opacity: 0.9"/>
     <use xlink:href="#m39a54b8d07" x="394.388435" y="121.715266" style="fill: #949494; fill-opacity: 0.9; stroke: #949494; stroke-opacity: 0.9"/>
     <use xlink:href="#m39a54b8d07" x="432.263888" y="100.110124" style="fill: #949494; fill-opacity: 0.9; stroke: #949494; stroke-opacity: 0.9"/>
    </g>
   </g>
   <g id="line2d_54">
    <path d="M 280.762077 209.990517 
L 318.637529 197.884078 
L 356.512982 172.375482 
L 394.388435 124.807815 
L 432.263888 59.810762 
" clip-path="url(#p6c21a49757)" style="fill: none; stroke-dasharray: 4.8,2.4; stroke-dashoffset: 0; stroke: #c44e52; stroke-opacity: 0.9; stroke-width: 1.2"/>
    <g clip-path="url(#p6c21a49757)">
     <use xlink:href="#ma399de0030" x="280.762077" y="209.990517" style="fill: #c44e52; fill-opacity: 0.9; stroke: #c44e52; stroke-opacity: 0.9; stroke-linejoin: miter"/>
     <use xlink:href="#ma399de0030" x="318.637529" y="197.884078" style="fill: #c44e52; fill-opacity: 0.9; stroke: #c44e52; stroke-opacity: 0.9; stroke-linejoin: miter"/>
     <use xlink:href="#ma399de0030" x="356.512982" y="172.375482" style="fill: #c44e52; fill-opacity: 0.9; stroke: #c44e52; stroke-opacity: 0.9; stroke-linejoin: miter"/>
     <use xlink:href="#ma399de0030" x="394.388435" y="124.807815" style="fill: #c44e52; fill-opacity: 0.9; stroke: #c44e52; stroke-opacity: 0.9; stroke-linejoin: miter"/>
     <use xlink:href="#ma399de0030" x="432.263888" y="59.810762" style="fill: #c44e52; fill-opacity: 0.9; stroke: #c44e52; stroke-opacity: 0.9; stroke-linejoin: miter"/>
    </g>
   </g>
   <g id="line2d_55">
    <path d="M 280.762077 205.002568 
L 318.637529 180.106385 
L 356.512982 145.288803 
L 394.388435 111.737241 
L 432.263888 81.062971 
" clip-path="url(#p6c21a49757)" style="fill: none; stroke: #55a868; stroke-opacity: 0.9; stroke-width: 1.2; stroke-linecap: square"/>
    <g clip-path="url(#p6c21a49757)">
     <use xlink:href="#mb125caab25" x="280.762077" y="205.002568" style="fill: #55a868; fill-opacity: 0.9; stroke: #55a868; stroke-opacity: 0.9; stroke-linejoin: miter"/>
     <use xlink:href="#mb125caab25" x="318.637529" y="180.106385" style="fill: #55a868; fill-opacity: 0.9; stroke: #55a868; stroke-opacity: 0.9; stroke-linejoin: miter"/>
     <use xlink:href="#mb125caab25" x="356.512982" y="145.288803" style="fill: #55a868; fill-opacity: 0.9; stroke: #55a868; stroke-opacity: 0.9; stroke-linejoin: miter"/>
     <use xlink:href="#mb125caab25" x="394.388435" y="111.737241" style="fill: #55a868; fill-opacity: 0.9; stroke: #55a868; stroke-opacity: 0.9; stroke-linejoin: miter"/>
     <use xlink:href="#mb125caab25" x="432.263888" y="81.062971" style="fill: #55a868; fill-opacity: 0.9; stroke: #55a868; stroke-opacity: 0.9; stroke-linejoin: miter"/>
    </g>
   </g>
   <g id="PolyCollection_6">
    <defs>
     <path id="me96e097fc9" d="M 280.762077 -46.319298 
L 280.762077 -42.719498 
L 318.637529 -65.001 
L 356.512982 -89.572958 
L 394.388435 -114.338241 
L 432.263888 -133.299534 
L 432.263888 -180.034881 
L 432.263888 -180.034881 
L 394.388435 -153.000614 
L 356.512982 -111.296724 
L 318.637529 -71.797018 
L 280.762077 -46.319298 
z
"/>
    </defs>
    <g clip-path="url(#p6c21a49757)">
     <use xlink:href="#me96e097fc9" x="0" y="249.31976" style="fill: #4c72b0; fill-opacity: 0.12"/>
    </g>
   </g>
   <g id="patch_10">
    <path d="M 276.974531 215.678979 
L 276.974531 44.369615 
" style="fill: none; stroke: #000000; stroke-width: 0.8; stroke-linejoin: miter; stroke-linecap: square"/>
   </g>
   <g id="patch_11">
    <path d="M 276.974531 215.678979 
L 454.98916 215.678979 
" style="fill: none; stroke: #000000; stroke-width: 0.8; stroke-linejoin: miter; stroke-linecap: square"/>
   </g>
   <g id="patch_12">
    <path d="M 368.244176 89.029421 
Q 399.345549 74.834724 429.633236 61.011394 
" style="fill: none; stroke: #c44e52; stroke-width: 0.8; stroke-linecap: round"/>
    <path d="M 426.057779 60.884472 
L 429.633236 61.011394 
L 427.386424 63.795606 
" style="fill: none; stroke: #c44e52; stroke-width: 0.8; stroke-linecap: round"/>
   </g>
   <g id="text_34">
    <!-- Pointwise worst at G4 -->
    <g style="fill: #c44e52" transform="translate(318.637529 97.415256) scale(0.08 -0.08)">
     <use xlink:href="#TimesNewRomanPSMT-50"/>
     <use xlink:href="#TimesNewRomanPSMT-6f" x="55.615234"/>
     <use xlink:href="#TimesNewRomanPSMT-69" x="105.615234"/>
     <use xlink:href="#TimesNewRomanPSMT-6e" x="133.398438"/>
     <use xlink:href="#TimesNewRomanPSMT-74" x="183.398438"/>
     <use xlink:href="#TimesNewRomanPSMT-77" x="211.181641"/>
     <use xlink:href="#TimesNewRomanPSMT-69" x="283.398438"/>
     <use xlink:href="#TimesNewRomanPSMT-73" x="311.181641"/>
     <use xlink:href="#TimesNewRomanPSMT-65" x="350.097656"/>
     <use xlink:href="#TimesNewRomanPSMT-20" x="394.482422"/>
     <use xlink:href="#TimesNewRomanPSMT-77" x="419.482422"/>
     <use xlink:href="#TimesNewRomanPSMT-6f" x="491.699219"/>
     <use xlink:href="#TimesNewRomanPSMT-72" x="541.699219"/>
     <use xlink:href="#TimesNewRomanPSMT-73" x="575"/>
     <use xlink:href="#TimesNewRomanPSMT-74" x="613.916016"/>
     <use xlink:href="#TimesNewRomanPSMT-20" x="641.699219"/>
     <use xlink:href="#TimesNewRomanPSMT-61" x="666.699219"/>
     <use xlink:href="#TimesNewRomanPSMT-74" x="711.083984"/>
     <use xlink:href="#TimesNewRomanPSMT-20" x="738.867188"/>
     <use xlink:href="#TimesNewRomanPSMT-47" x="763.867188"/>
     <use xlink:href="#TimesNewRomanPSMT-34" x="836.083984"/>
    </g>
   </g>
   <g id="line2d_56">
    <path d="M 280.762077 204.800362 
L 318.637529 180.920751 
L 356.512982 148.884919 
L 394.388435 115.650332 
L 432.263888 92.652553 
" clip-path="url(#p6c21a49757)" style="fill: none; stroke: #4c72b0; stroke-width: 1.2; stroke-linecap: square"/>
    <g clip-path="url(#p6c21a49757)">
     <use xlink:href="#mcff8e0e876" x="280.762077" y="204.800362" style="fill: #4c72b0; stroke: #4c72b0; stroke-linejoin: miter"/>
     <use xlink:href="#mcff8e0e876" x="318.637529" y="180.920751" style="fill: #4c72b0; stroke: #4c72b0; stroke-linejoin: miter"/>
     <use xlink:href="#mcff8e0e876" x="356.512982" y="148.884919" style="fill: #4c72b0; stroke: #4c72b0; stroke-linejoin: miter"/>
     <use xlink:href="#mcff8e0e876" x="394.388435" y="115.650332" style="fill: #4c72b0; stroke: #4c72b0; stroke-linejoin: miter"/>
     <use xlink:href="#mcff8e0e876" x="432.263888" y="92.652553" style="fill: #4c72b0; stroke: #4c72b0; stroke-linejoin: miter"/>
    </g>
   </g>
   <g id="patch_13">
    <path d="M 437.920448 102.72656 
Q 435.999483 101.83802 434.078517 100.949479 
" style="fill: none; stroke: #949494; stroke-width: 0.6; stroke-linecap: round"/>
   </g>
   <g id="text_35">
    <!-- No Filter -->
    <g style="fill: #949494" transform="translate(441.732751 108.9553) scale(0.08 -0.08)">
     <use xlink:href="#TimesNewRomanPSMT-4e"/>
     <use xlink:href="#TimesNewRomanPSMT-6f" x="72.216797"/>
     <use xlink:href="#TimesNewRomanPSMT-20" x="122.216797"/>
     <use xlink:href="#TimesNewRomanPSMT-46" x="147.216797"/>
     <use xlink:href="#TimesNewRomanPSMT-69" x="202.832031"/>
     <use xlink:href="#TimesNewRomanPSMT-6c" x="230.615234"/>
     <use xlink:href="#TimesNewRomanPSMT-74" x="258.398438"/>
     <use xlink:href="#TimesNewRomanPSMT-65" x="286.181641"/>
     <use xlink:href="#TimesNewRomanPSMT-72" x="330.566406"/>
    </g>
    <!-- 173.3 -->
    <g style="fill: #949494" transform="translate(441.732751 117.33255) scale(0.08 -0.08)">
     <use xlink:href="#TimesNewRomanPSMT-31"/>
     <use xlink:href="#TimesNewRomanPSMT-37" x="50"/>
     <use xlink:href="#TimesNewRomanPSMT-33" x="100"/>
     <use xlink:href="#TimesNewRomanPSMT-2e" x="150"/>
     <use xlink:href="#TimesNewRomanPSMT-33" x="175"/>
    </g>
   </g>
   <g id="patch_14">
    <path d="M 437.737138 60.086495 
Q 435.998686 59.998914 434.260235 59.911334 
" style="fill: none; stroke: #c44e52; stroke-width: 0.6; stroke-linecap: round"/>
   </g>
   <g id="text_36">
    <!-- Pointwise -->
    <g style="fill: #c44e52" transform="translate(441.732751 58.815974) scale(0.08 -0.08)">
     <use xlink:href="#TimesNewRomanPSMT-50"/>
     <use xlink:href="#TimesNewRomanPSMT-6f" x="55.615234"/>
     <use xlink:href="#TimesNewRomanPSMT-69" x="105.615234"/>
     <use xlink:href="#TimesNewRomanPSMT-6e" x="133.398438"/>
     <use xlink:href="#TimesNewRomanPSMT-74" x="183.398438"/>
     <use xlink:href="#TimesNewRomanPSMT-77" x="211.181641"/>
     <use xlink:href="#TimesNewRomanPSMT-69" x="283.398438"/>
     <use xlink:href="#TimesNewRomanPSMT-73" x="311.181641"/>
     <use xlink:href="#TimesNewRomanPSMT-65" x="350.097656"/>
    </g>
    <!-- 221.5 -->
    <g style="fill: #c44e52" transform="translate(441.732751 67.193224) scale(0.08 -0.08)">
     <use xlink:href="#TimesNewRomanPSMT-32"/>
     <use xlink:href="#TimesNewRomanPSMT-32" x="50"/>
     <use xlink:href="#TimesNewRomanPSMT-31" x="100"/>
     <use xlink:href="#TimesNewRomanPSMT-2e" x="150"/>
     <use xlink:href="#TimesNewRomanPSMT-35" x="175"/>
    </g>
   </g>
   <g id="patch_15">
    <path d="M 437.745419 80.394762 
Q 435.996308 80.607982 434.247196 80.821202 
" style="fill: none; stroke: #55a868; stroke-width: 0.6; stroke-linecap: round"/>
   </g>
   <g id="text_37">
    <!-- Dispersion -->
    <g style="fill: #55a868" transform="translate(441.732751 75.529082) scale(0.08 -0.08)">
     <use xlink:href="#TimesNewRomanPSMT-44"/>
     <use xlink:href="#TimesNewRomanPSMT-69" x="72.216797"/>
     <use xlink:href="#TimesNewRomanPSMT-73" x="100"/>
     <use xlink:href="#TimesNewRomanPSMT-70" x="138.916016"/>
     <use xlink:href="#TimesNewRomanPSMT-65" x="188.916016"/>
     <use xlink:href="#TimesNewRomanPSMT-72" x="233.300781"/>
     <use xlink:href="#TimesNewRomanPSMT-73" x="266.601562"/>
     <use xlink:href="#TimesNewRomanPSMT-69" x="305.517578"/>
     <use xlink:href="#TimesNewRomanPSMT-6f" x="333.300781"/>
     <use xlink:href="#TimesNewRomanPSMT-6e" x="383.300781"/>
    </g>
    <!-- 196.1 -->
    <g style="fill: #55a868" transform="translate(441.732751 83.906332) scale(0.08 -0.08)">
     <defs>
      <path id="TimesNewRomanPSMT-39" d="M 338 -88 
L 338 28 
Q 744 34 1094 217 
Q 1444 400 1770 856 
Q 2097 1313 2225 1859 
Q 1734 1544 1338 1544 
Q 891 1544 572 1889 
Q 253 2234 253 2806 
Q 253 3363 572 3797 
Q 956 4325 1575 4325 
Q 2097 4325 2469 3894 
Q 2925 3359 2925 2575 
Q 2925 1869 2578 1258 
Q 2231 647 1613 244 
Q 1109 -88 516 -88 
L 338 -88 
z
M 2275 2091 
Q 2331 2497 2331 2741 
Q 2331 3044 2228 3395 
Q 2125 3747 1936 3934 
Q 1747 4122 1506 4122 
Q 1228 4122 1018 3872 
Q 809 3622 809 3128 
Q 809 2469 1088 2097 
Q 1291 1828 1588 1828 
Q 1731 1828 1928 1897 
Q 2125 1966 2275 2091 
z
" transform="scale(0.015625)"/>
     </defs>
     <use xlink:href="#TimesNewRomanPSMT-31"/>
     <use xlink:href="#TimesNewRomanPSMT-39" x="50"/>
     <use xlink:href="#TimesNewRomanPSMT-36" x="100"/>
     <use xlink:href="#TimesNewRomanPSMT-2e" x="150"/>
     <use xlink:href="#TimesNewRomanPSMT-31" x="175"/>
    </g>
   </g>
   <g id="patch_16">
    <path d="M 437.738775 93.040361 
Q 435.999803 92.917182 434.260832 92.794004 
" style="fill: none; stroke: #4c72b0; stroke-width: 0.6; stroke-linecap: round"/>
   </g>
   <g id="text_38">
    <!-- Set-Aware -->
    <g style="fill: #4c72b0" transform="translate(441.732751 92.242191) scale(0.08 -0.08)">
     <use xlink:href="#TimesNewRomanPSMT-53"/>
     <use xlink:href="#TimesNewRomanPSMT-65" x="55.615234"/>
     <use xlink:href="#TimesNewRomanPSMT-74" x="100"/>
     <use xlink:href="#TimesNewRomanPSMT-2d" x="127.783203"/>
     <use xlink:href="#TimesNewRomanPSMT-41" x="161.083984"/>
     <use xlink:href="#TimesNewRomanPSMT-77" x="224.175781"/>
     <use xlink:href="#TimesNewRomanPSMT-61" x="296.392578"/>
     <use xlink:href="#TimesNewRomanPSMT-72" x="340.777344"/>
     <use xlink:href="#TimesNewRomanPSMT-65" x="374.078125"/>
    </g>
    <!-- 182.2 -->
    <g style="fill: #4c72b0" transform="translate(441.732751 100.619441) scale(0.08 -0.08)">
     <defs>
      <path id="TimesNewRomanPSMT-38" d="M 1228 2134 
Q 725 2547 579 2797 
Q 434 3047 434 3316 
Q 434 3728 753 4026 
Q 1072 4325 1600 4325 
Q 2113 4325 2425 4047 
Q 2738 3769 2738 3413 
Q 2738 3175 2569 2928 
Q 2400 2681 1866 2347 
Q 2416 1922 2594 1678 
Q 2831 1359 2831 1006 
Q 2831 559 2490 242 
Q 2150 -75 1597 -75 
Q 994 -75 656 303 
Q 388 606 388 966 
Q 388 1247 577 1523 
Q 766 1800 1228 2134 
z
M 1719 2469 
Q 2094 2806 2194 3001 
Q 2294 3197 2294 3444 
Q 2294 3772 2109 3958 
Q 1925 4144 1606 4144 
Q 1288 4144 1088 3959 
Q 888 3775 888 3528 
Q 888 3366 970 3203 
Q 1053 3041 1206 2894 
L 1719 2469 
z
M 1375 2016 
Q 1116 1797 991 1539 
Q 866 1281 866 981 
Q 866 578 1086 336 
Q 1306 94 1647 94 
Q 1984 94 2187 284 
Q 2391 475 2391 747 
Q 2391 972 2272 1150 
Q 2050 1481 1375 2016 
z
" transform="scale(0.015625)"/>
     </defs>
     <use xlink:href="#TimesNewRomanPSMT-31"/>
     <use xlink:href="#TimesNewRomanPSMT-38" x="50"/>
     <use xlink:href="#TimesNewRomanPSMT-32" x="100"/>
     <use xlink:href="#TimesNewRomanPSMT-2e" x="150"/>
     <use xlink:href="#TimesNewRomanPSMT-32" x="175"/>
    </g>
   </g>
   <g id="text_39">
    <!-- Streaming PPL ↓ -->
    <g transform="translate(335.40083 38.369615) scale(0.09 -0.09)">
     <defs>
      <path id="TimesNewRomanPSMT-6d" d="M 1050 2338 
Q 1363 2650 1419 2697 
Q 1559 2816 1721 2881 
Q 1884 2947 2044 2947 
Q 2313 2947 2506 2790 
Q 2700 2634 2766 2338 
Q 3088 2713 3309 2830 
Q 3531 2947 3766 2947 
Q 3994 2947 4170 2830 
Q 4347 2713 4450 2447 
Q 4519 2266 4519 1878 
L 4519 647 
Q 4519 378 4559 278 
Q 4591 209 4675 161 
Q 4759 113 4950 113 
L 4950 0 
L 3538 0 
L 3538 113 
L 3597 113 
Q 3781 113 3884 184 
Q 3956 234 3988 344 
Q 4000 397 4000 647 
L 4000 1878 
Q 4000 2228 3916 2372 
Q 3794 2572 3525 2572 
Q 3359 2572 3192 2489 
Q 3025 2406 2788 2181 
L 2781 2147 
L 2788 2013 
L 2788 647 
Q 2788 353 2820 281 
Q 2853 209 2943 161 
Q 3034 113 3253 113 
L 3253 0 
L 1806 0 
L 1806 113 
Q 2044 113 2133 169 
Q 2222 225 2256 338 
Q 2272 391 2272 647 
L 2272 1878 
Q 2272 2228 2169 2381 
Q 2031 2581 1784 2581 
Q 1616 2581 1450 2491 
Q 1191 2353 1050 2181 
L 1050 647 
Q 1050 366 1089 281 
Q 1128 197 1204 155 
Q 1281 113 1516 113 
L 1516 0 
L 100 0 
L 100 113 
Q 297 113 375 155 
Q 453 197 493 289 
Q 534 381 534 647 
L 534 1741 
Q 534 2213 506 2350 
Q 484 2453 437 2492 
Q 391 2531 309 2531 
Q 222 2531 100 2484 
L 53 2597 
L 916 2947 
L 1050 2947 
L 1050 2338 
z
" transform="scale(0.015625)"/>
      <path id="TimesNewRomanPSMT-67" d="M 966 1044 
Q 703 1172 562 1401 
Q 422 1631 422 1909 
Q 422 2334 742 2640 
Q 1063 2947 1563 2947 
Q 1972 2947 2272 2747 
L 2878 2747 
Q 3013 2747 3034 2739 
Q 3056 2731 3066 2713 
Q 3084 2684 3084 2613 
Q 3084 2531 3069 2500 
Q 3059 2484 3036 2475 
Q 3013 2466 2878 2466 
L 2506 2466 
Q 2681 2241 2681 1891 
Q 2681 1491 2375 1206 
Q 2069 922 1553 922 
Q 1341 922 1119 984 
Q 981 866 932 777 
Q 884 688 884 625 
Q 884 572 936 522 
Q 988 472 1138 450 
Q 1225 438 1575 428 
Q 2219 413 2409 384 
Q 2700 344 2873 169 
Q 3047 -6 3047 -263 
Q 3047 -616 2716 -925 
Q 2228 -1381 1444 -1381 
Q 841 -1381 425 -1109 
Q 191 -953 191 -784 
Q 191 -709 225 -634 
Q 278 -519 444 -313 
Q 466 -284 763 25 
Q 600 122 533 198 
Q 466 275 466 372 
Q 466 481 555 628 
Q 644 775 966 1044 
z
M 1509 2797 
Q 1278 2797 1122 2612 
Q 966 2428 966 2047 
Q 966 1553 1178 1281 
Q 1341 1075 1591 1075 
Q 1828 1075 1981 1253 
Q 2134 1431 2134 1813 
Q 2134 2309 1919 2591 
Q 1759 2797 1509 2797 
z
M 934 0 
Q 788 -159 713 -296 
Q 638 -434 638 -550 
Q 638 -700 819 -813 
Q 1131 -1006 1722 -1006 
Q 2284 -1006 2551 -807 
Q 2819 -609 2819 -384 
Q 2819 -222 2659 -153 
Q 2497 -84 2016 -72 
Q 1313 -53 934 0 
z
" transform="scale(0.015625)"/>
      <path id="TimesNewRomanPSMT-2193" d="M 478 -50 
L 478 188 
Q 850 3 997 -90 
Q 1144 -184 1444 -422 
L 1444 4184 
L 1759 4184 
L 1759 -422 
Q 2097 -100 2725 194 
L 2725 -47 
Q 2275 -450 2042 -740 
Q 1809 -1031 1663 -1341 
L 1519 -1341 
Q 1403 -1072 1167 -769 
Q 931 -466 478 -50 
z
" transform="scale(0.015625)"/>
     </defs>
     <use xlink:href="#TimesNewRomanPSMT-53"/>
     <use xlink:href="#TimesNewRomanPSMT-74" x="55.615234"/>
     <use xlink:href="#TimesNewRomanPSMT-72" x="83.398438"/>
     <use xlink:href="#TimesNewRomanPSMT-65" x="116.699219"/>
     <use xlink:href="#TimesNewRomanPSMT-61" x="161.083984"/>
     <use xlink:href="#TimesNewRomanPSMT-6d" x="205.46875"/>
     <use xlink:href="#TimesNewRomanPSMT-69" x="283.251953"/>
     <use xlink:href="#TimesNewRomanPSMT-6e" x="311.035156"/>
     <use xlink:href="#TimesNewRomanPSMT-67" x="361.035156"/>
     <use xlink:href="#TimesNewRomanPSMT-20" x="411.035156"/>
     <use xlink:href="#TimesNewRomanPSMT-50" x="436.035156"/>
     <use xlink:href="#TimesNewRomanPSMT-50" x="491.650391"/>
     <use xlink:href="#TimesNewRomanPSMT-4c" x="547.265625"/>
     <use xlink:href="#TimesNewRomanPSMT-20" x="604.599609"/>
     <use xlink:href="#TimesNewRomanPSMT-2193" x="629.599609"/>
    </g>
   </g>
  </g>
  <g id="legend_1">
   <g id="line2d_57">
    <path d="M 108.59476 13.2 
L 116.59476 13.2 
L 124.59476 13.2 
" style="fill: none; stroke: #949494; stroke-opacity: 0.9; stroke-width: 1.2; stroke-linecap: square"/>
    <g>
     <use xlink:href="#m39a54b8d07" x="116.59476" y="13.2" style="fill: #949494; fill-opacity: 0.9; stroke: #949494; stroke-opacity: 0.9"/>
    </g>
   </g>
   <g id="text_40">
    <!-- No Filter -->
    <g transform="translate(130.99476 16) scale(0.08 -0.08)">
     <use xlink:href="#TimesNewRomanPSMT-4e"/>
     <use xlink:href="#TimesNewRomanPSMT-6f" x="72.216797"/>
     <use xlink:href="#TimesNewRomanPSMT-20" x="122.216797"/>
     <use xlink:href="#TimesNewRomanPSMT-46" x="147.216797"/>
     <use xlink:href="#TimesNewRomanPSMT-69" x="202.832031"/>
     <use xlink:href="#TimesNewRomanPSMT-6c" x="230.615234"/>
     <use xlink:href="#TimesNewRomanPSMT-74" x="258.398438"/>
     <use xlink:href="#TimesNewRomanPSMT-65" x="286.181641"/>
     <use xlink:href="#TimesNewRomanPSMT-72" x="330.566406"/>
    </g>
   </g>
   <g id="line2d_58">
    <path d="M 176.10351 13.2 
L 184.10351 13.2 
L 192.10351 13.2 
" style="fill: none; stroke-dasharray: 4.8,2.4; stroke-dashoffset: 0; stroke: #c44e52; stroke-opacity: 0.9; stroke-width: 1.2"/>
    <g>
     <use xlink:href="#ma399de0030" x="184.10351" y="13.2" style="fill: #c44e52; fill-opacity: 0.9; stroke: #c44e52; stroke-opacity: 0.9; stroke-linejoin: miter"/>
    </g>
   </g>
   <g id="text_41">
    <!-- Pointwise -->
    <g transform="translate(198.50351 16) scale(0.08 -0.08)">
     <use xlink:href="#TimesNewRomanPSMT-50"/>
     <use xlink:href="#TimesNewRomanPSMT-6f" x="55.615234"/>
     <use xlink:href="#TimesNewRomanPSMT-69" x="105.615234"/>
     <use xlink:href="#TimesNewRomanPSMT-6e" x="133.398438"/>
     <use xlink:href="#TimesNewRomanPSMT-74" x="183.398438"/>
     <use xlink:href="#TimesNewRomanPSMT-77" x="211.181641"/>
     <use xlink:href="#TimesNewRomanPSMT-69" x="283.398438"/>
     <use xlink:href="#TimesNewRomanPSMT-73" x="311.181641"/>
     <use xlink:href="#TimesNewRomanPSMT-65" x="350.097656"/>
    </g>
   </g>
   <g id="line2d_59">
    <path d="M 246.06226 13.2 
L 254.06226 13.2 
L 262.06226 13.2 
" style="fill: none; stroke: #55a868; stroke-opacity: 0.9; stroke-width: 1.2; stroke-linecap: square"/>
    <g>
     <use xlink:href="#mb125caab25" x="254.06226" y="13.2" style="fill: #55a868; fill-opacity: 0.9; stroke: #55a868; stroke-opacity: 0.9; stroke-linejoin: miter"/>
    </g>
   </g>
   <g id="text_42">
    <!-- Dispersion -->
    <g transform="translate(268.46226 16) scale(0.08 -0.08)">
     <use xlink:href="#TimesNewRomanPSMT-44"/>
     <use xlink:href="#TimesNewRomanPSMT-69" x="72.216797"/>
     <use xlink:href="#TimesNewRomanPSMT-73" x="100"/>
     <use xlink:href="#TimesNewRomanPSMT-70" x="138.916016"/>
     <use xlink:href="#TimesNewRomanPSMT-65" x="188.916016"/>
     <use xlink:href="#TimesNewRomanPSMT-72" x="233.300781"/>
     <use xlink:href="#TimesNewRomanPSMT-73" x="266.601562"/>
     <use xlink:href="#TimesNewRomanPSMT-69" x="305.517578"/>
     <use xlink:href="#TimesNewRomanPSMT-6f" x="333.300781"/>
     <use xlink:href="#TimesNewRomanPSMT-6e" x="383.300781"/>
    </g>
   </g>
   <g id="line2d_60">
    <path d="M 319.12726 13.2 
L 327.12726 13.2 
L 335.12726 13.2 
" style="fill: none; stroke: #4c72b0; stroke-width: 1.2; stroke-linecap: square"/>
    <g>
     <use xlink:href="#mcff8e0e876" x="327.12726" y="13.2" style="fill: #4c72b0; stroke: #4c72b0; stroke-linejoin: miter"/>
    </g>
   </g>
   <g id="text_43">
    <!-- Set-Aware -->
    <g transform="translate(341.52726 16) scale(0.08 -0.08)">
     <use xlink:href="#TimesNewRomanPSMT-53"/>
     <use xlink:href="#TimesNewRomanPSMT-65" x="55.615234"/>
     <use xlink:href="#TimesNewRomanPSMT-74" x="100"/>
     <use xlink:href="#TimesNewRomanPSMT-2d" x="127.783203"/>
     <use xlink:href="#TimesNewRomanPSMT-41" x="161.083984"/>
     <use xlink:href="#TimesNewRomanPSMT-77" x="224.175781"/>
     <use xlink:href="#TimesNewRomanPSMT-61" x="296.392578"/>
     <use xlink:href="#TimesNewRomanPSMT-72" x="340.777344"/>
     <use xlink:href="#TimesNewRomanPSMT-65" x="374.078125"/>
    </g>
   </g>
  </g>
 </g>
 <defs>
  <clipPath id="p37d5717acd">
   <rect x="40.374531" y="44.369615" width="178.014629" height="171.309364"/>
  </clipPath>
  <clipPath id="p6c21a49757">
   <rect x="276.974531" y="44.369615" width="178.014629" height="171.309364"/>
  </clipPath>
 </defs>
</svg>
